<svg xmlns="http://www.w3.org/2000/svg" width="1416" height="407" viewBox="0 0 1416 407" overflow="visible" role="img" aria-label="A Kaveri location card introduces the move aboard. Tomas reports readiness and Jonah gives the departure order." data-panel="4a"><defs><clipPath id="page-4-4a-panel-clip"><rect x="0" y="0" width="1416" height="407" fill="white" stroke="none" stroke-width="2" rx="0"/></clipPath></defs><g clip-path="url(#page-4-4a-panel-clip)"><svg xmlns="http://www.w3.org/2000/svg" width="1416" height="407" viewBox="0 0 1416 407"><defs><linearGradient id="page-4-4a-space" x2=".8" y2="1"><stop stop-color="#344760" offset="0"/><stop stop-color="#202c42" offset="0.6"/><stop stop-color="#34434d" offset="1"/></linearGradient><linearGradient id="page-4-4a-planet" x2=".9" y2=".6"><stop stop-color="#f4d9a0" offset="0"/><stop stop-color="#d3ae83" offset="0.58"/><stop stop-color="#73677d" offset="1"/></linearGradient><clipPath id="page-4-4a-globe"><circle r="310"/></clipPath></defs><rect x="0" y="0" width="1416" height="407" fill="#304c58" stroke="none" stroke-width="2" rx="0"/><rect x="113" y="-35" width="1190" height="352" fill="url(#page-4-4a-space)" stroke="#23333c" stroke-width="18" rx="60"/><ellipse cx="47" cy="31" rx="0.7" ry="0.7" fill="#c7d4d5" stroke="none" stroke-width="2" opacity="0.25"/><ellipse cx="238" cy="144" rx="1.0" ry="1.0" fill="#c7d4d5" stroke="none" stroke-width="2" opacity="0.37"/><ellipse cx="429" cy="257" rx="1.2999999999999998" ry="1.2999999999999998" fill="#c7d4d5" stroke="none" stroke-width="2" opacity="0.49"/><ellipse cx="620" cy="70" rx="0.7" ry="0.7" fill="#c7d4d5" stroke="none" stroke-width="2" opacity="0.61"/><ellipse cx="811" cy="183" rx="1.0" ry="1.0" fill="#c7d4d5" stroke="none" stroke-width="2" opacity="0.25"/><ellipse cx="1002" cy="296" rx="1.2999999999999998" ry="1.2999999999999998" fill="#c7d4d5" stroke="none" stroke-width="2" opacity="0.37"/><ellipse cx="1193" cy="109" rx="0.7" ry="0.7" fill="#c7d4d5" stroke="none" stroke-width="2" opacity="0.49"/><ellipse cx="1384" cy="222" rx="1.0" ry="1.0" fill="#c7d4d5" stroke="none" stroke-width="2" opacity="0.61"/><ellipse cx="159" cy="35" rx="1.2999999999999998" ry="1.2999999999999998" fill="#c7d4d5" stroke="none" stroke-width="2" opacity="0.25"/><ellipse cx="350" cy="148" rx="0.7" ry="0.7" fill="#c7d4d5" stroke="none" stroke-width="2" opacity="0.37"/><ellipse cx="541" cy="261" rx="1.0" ry="1.0" fill="#c7d4d5" stroke="none" stroke-width="2" opacity="0.49"/><ellipse cx="732" cy="74" rx="1.2999999999999998" ry="1.2999999999999998" fill="#c7d4d5" stroke="none" stroke-width="2" opacity="0.61"/><ellipse cx="923" cy="187" rx="0.7" ry="0.7" fill="#c7d4d5" stroke="none" stroke-width="2" opacity="0.25"/><ellipse cx="1114" cy="0" rx="1.0" ry="1.0" fill="#c7d4d5" stroke="none" stroke-width="2" opacity="0.37"/><ellipse cx="1305" cy="113" rx="1.2999999999999998" ry="1.2999999999999998" fill="#c7d4d5" stroke="none" stroke-width="2" opacity="0.49"/><ellipse cx="80" cy="226" rx="0.7" ry="0.7" fill="#c7d4d5" stroke="none" stroke-width="2" opacity="0.61"/><ellipse cx="271" cy="39" rx="1.0" ry="1.0" fill="#c7d4d5" stroke="none" stroke-width="2" opacity="0.25"/><ellipse cx="462" cy="152" rx="1.2999999999999998" ry="1.2999999999999998" fill="#c7d4d5" stroke="none" stroke-width="2" opacity="0.37"/><ellipse cx="653" cy="265" rx="0.7" ry="0.7" fill="#c7d4d5" stroke="none" stroke-width="2" opacity="0.49"/><ellipse cx="844" cy="78" rx="1.0" ry="1.0" fill="#c7d4d5" stroke="none" stroke-width="2" opacity="0.61"/><ellipse cx="1035" cy="191" rx="1.2999999999999998" ry="1.2999999999999998" fill="#c7d4d5" stroke="none" stroke-width="2" opacity="0.25"/><ellipse cx="1226" cy="4" rx="0.7" ry="0.7" fill="#c7d4d5" stroke="none" stroke-width="2" opacity="0.37"/><ellipse cx="1" cy="117" rx="1.0" ry="1.0" fill="#c7d4d5" stroke="none" stroke-width="2" opacity="0.49"/><ellipse cx="192" cy="230" rx="1.2999999999999998" ry="1.2999999999999998" fill="#c7d4d5" stroke="none" stroke-width="2" opacity="0.61"/><ellipse cx="383" cy="43" rx="0.7" ry="0.7" fill="#c7d4d5" stroke="none" stroke-width="2" opacity="0.25"/><ellipse cx="574" cy="156" rx="1.0" ry="1.0" fill="#c7d4d5" stroke="none" stroke-width="2" opacity="0.37"/><ellipse cx="765" cy="269" rx="1.2999999999999998" ry="1.2999999999999998" fill="#c7d4d5" stroke="none" stroke-width="2" opacity="0.49"/><ellipse cx="956" cy="82" rx="0.7" ry="0.7" fill="#c7d4d5" stroke="none" stroke-width="2" opacity="0.61"/><ellipse cx="1147" cy="195" rx="1.0" ry="1.0" fill="#c7d4d5" stroke="none" stroke-width="2" opacity="0.25"/><ellipse cx="1338" cy="8" rx="1.2999999999999998" ry="1.2999999999999998" fill="#c7d4d5" stroke="none" stroke-width="2" opacity="0.37"/><ellipse cx="113" cy="121" rx="0.7" ry="0.7" fill="#c7d4d5" stroke="none" stroke-width="2" opacity="0.49"/><ellipse cx="304" cy="234" rx="1.0" ry="1.0" fill="#c7d4d5" stroke="none" stroke-width="2" opacity="0.61"/><ellipse cx="495" cy="47" rx="1.2999999999999998" ry="1.2999999999999998" fill="#c7d4d5" stroke="none" stroke-width="2" opacity="0.25"/><ellipse cx="686" cy="160" rx="0.7" ry="0.7" fill="#c7d4d5" stroke="none" stroke-width="2" opacity="0.37"/><ellipse cx="877" cy="273" rx="1.0" ry="1.0" fill="#c7d4d5" stroke="none" stroke-width="2" opacity="0.49"/><ellipse cx="1068" cy="86" rx="1.2999999999999998" ry="1.2999999999999998" fill="#c7d4d5" stroke="none" stroke-width="2" opacity="0.61"/><ellipse cx="1259" cy="199" rx="0.7" ry="0.7" fill="#c7d4d5" stroke="none" stroke-width="2" opacity="0.25"/><ellipse cx="34" cy="12" rx="1.0" ry="1.0" fill="#c7d4d5" stroke="none" stroke-width="2" opacity="0.37"/><ellipse cx="225" cy="125" rx="1.2999999999999998" ry="1.2999999999999998" fill="#c7d4d5" stroke="none" stroke-width="2" opacity="0.49"/><ellipse cx="416" cy="238" rx="0.7" ry="0.7" fill="#c7d4d5" stroke="none" stroke-width="2" opacity="0.61"/><ellipse cx="607" cy="51" rx="1.0" ry="1.0" fill="#c7d4d5" stroke="none" stroke-width="2" opacity="0.25"/><ellipse cx="798" cy="164" rx="1.2999999999999998" ry="1.2999999999999998" fill="#c7d4d5" stroke="none" stroke-width="2" opacity="0.37"/><ellipse cx="989" cy="277" rx="0.7" ry="0.7" fill="#c7d4d5" stroke="none" stroke-width="2" opacity="0.49"/><ellipse cx="1180" cy="90" rx="1.0" ry="1.0" fill="#c7d4d5" stroke="none" stroke-width="2" opacity="0.61"/><ellipse cx="1371" cy="203" rx="1.2999999999999998" ry="1.2999999999999998" fill="#c7d4d5" stroke="none" stroke-width="2" opacity="0.25"/><ellipse cx="146" cy="16" rx="0.7" ry="0.7" fill="#c7d4d5" stroke="none" stroke-width="2" opacity="0.37"/><ellipse cx="337" cy="129" rx="1.0" ry="1.0" fill="#c7d4d5" stroke="none" stroke-width="2" opacity="0.49"/><ellipse cx="528" cy="242" rx="1.2999999999999998" ry="1.2999999999999998" fill="#c7d4d5" stroke="none" stroke-width="2" opacity="0.61"/><ellipse cx="719" cy="55" rx="0.7" ry="0.7" fill="#c7d4d5" stroke="none" stroke-width="2" opacity="0.25"/><ellipse cx="910" cy="168" rx="1.0" ry="1.0" fill="#c7d4d5" stroke="none" stroke-width="2" opacity="0.37"/><ellipse cx="1101" cy="281" rx="1.2999999999999998" ry="1.2999999999999998" fill="#c7d4d5" stroke="none" stroke-width="2" opacity="0.49"/><ellipse cx="1292" cy="94" rx="0.7" ry="0.7" fill="#c7d4d5" stroke="none" stroke-width="2" opacity="0.61"/><ellipse cx="67" cy="207" rx="1.0" ry="1.0" fill="#c7d4d5" stroke="none" stroke-width="2" opacity="0.25"/><ellipse cx="258" cy="20" rx="1.2999999999999998" ry="1.2999999999999998" fill="#c7d4d5" stroke="none" stroke-width="2" opacity="0.37"/><ellipse cx="449" cy="133" rx="0.7" ry="0.7" fill="#c7d4d5" stroke="none" stroke-width="2" opacity="0.49"/><ellipse cx="640" cy="246" rx="1.0" ry="1.0" fill="#c7d4d5" stroke="none" stroke-width="2" opacity="0.61"/><ellipse cx="831" cy="59" rx="1.2999999999999998" ry="1.2999999999999998" fill="#c7d4d5" stroke="none" stroke-width="2" opacity="0.25"/><ellipse cx="1022" cy="172" rx="0.7" ry="0.7" fill="#c7d4d5" stroke="none" stroke-width="2" opacity="0.37"/><ellipse cx="1213" cy="285" rx="1.0" ry="1.0" fill="#c7d4d5" stroke="none" stroke-width="2" opacity="0.49"/><ellipse cx="1404" cy="98" rx="1.2999999999999998" ry="1.2999999999999998" fill="#c7d4d5" stroke="none" stroke-width="2" opacity="0.61"/><ellipse cx="179" cy="211" rx="0.7" ry="0.7" fill="#c7d4d5" stroke="none" stroke-width="2" opacity="0.25"/><ellipse cx="370" cy="24" rx="1.0" ry="1.0" fill="#c7d4d5" stroke="none" stroke-width="2" opacity="0.37"/><ellipse cx="561" cy="137" rx="1.2999999999999998" ry="1.2999999999999998" fill="#c7d4d5" stroke="none" stroke-width="2" opacity="0.49"/><ellipse cx="752" cy="250" rx="0.7" ry="0.7" fill="#c7d4d5" stroke="none" stroke-width="2" opacity="0.61"/><ellipse cx="943" cy="63" rx="1.0" ry="1.0" fill="#c7d4d5" stroke="none" stroke-width="2" opacity="0.25"/><g transform="translate(522 159) rotate(-10) scale(0.29)"><path d="M-311-5L315-5V33H-311Z" fill="#698e86" stroke="#23333c" stroke-width="4" stroke-linecap="round" stroke-linejoin="round"/><path d="M-297 3H304" fill="none" stroke="#e2d6ad" stroke-width="4" stroke-linecap="round" stroke-linejoin="round"/><path d="M-256 13L-220 28L-185 13L-150 28L-115 13L-80 28L-45 13L-10 28L25 13L60 28L95 13L130 28L165 13L200 28L235 13L270 28" fill="none" stroke="#294755" stroke-width="4" stroke-linecap="round" stroke-linejoin="round"/><rect x="-156" y="-161" width="86" height="153" fill="#b4c0a6" stroke="#23333c" stroke-width="3" rx="0"/><rect x="-105" y="-158" width="34" height="147" fill="#659b88" stroke="none" stroke-width="2" rx="0"/><ellipse cx="-113" cy="-161" rx="43" ry="15" fill="#e2d6ad" stroke="#23333c" stroke-width="3"/><path d="M-156-105H-70M-156-38H-70" fill="none" stroke="#4b786d" stroke-width="9" stroke-linecap="round" stroke-linejoin="round"/><path d="M-135-155V-20" fill="none" stroke="#e2d6ad" stroke-width="3" stroke-linecap="round" stroke-linejoin="round"/><path d="M-113-178V-195H-166V-3" fill="none" stroke="#cfaa78" stroke-width="6" stroke-linecap="round" stroke-linejoin="round"/><path d="M-113 34V70" fill="none" stroke="#a9bca4" stroke-width="13" stroke-linecap="round" stroke-linejoin="round"/><path d="M-156 72L-138 57H-60L-78 72Z" fill="#e2d6ad" stroke="#23333c" stroke-width="2" stroke-linecap="round" stroke-linejoin="round"/><rect x="-156" y="72" width="78" height="48" fill="#4b786d" stroke="#23333c" stroke-width="2" rx="0"/><rect x="-143" y="82" width="45" height="7" fill="#cfaa78" stroke="none" stroke-width="2" rx="0"/><rect x="-33" y="-161" width="86" height="153" fill="#b4c0a6" stroke="#23333c" stroke-width="3" rx="0"/><rect x="18" y="-158" width="34" height="147" fill="#659b88" stroke="none" stroke-width="2" rx="0"/><ellipse cx="10" cy="-161" rx="43" ry="15" fill="#e2d6ad" stroke="#23333c" stroke-width="3"/><path d="M-33-105H53M-33-38H53" fill="none" stroke="#4b786d" stroke-width="9" stroke-linecap="round" stroke-linejoin="round"/><path d="M-12-155V-20" fill="none" stroke="#e2d6ad" stroke-width="3" stroke-linecap="round" stroke-linejoin="round"/><path d="M10-178V-195H-43V-3" fill="none" stroke="#cfaa78" stroke-width="6" stroke-linecap="round" stroke-linejoin="round"/><path d="M10 34V70" fill="none" stroke="#a9bca4" stroke-width="13" stroke-linecap="round" stroke-linejoin="round"/><path d="M-33 72L-15 57H63L45 72Z" fill="#e2d6ad" stroke="#23333c" stroke-width="2" stroke-linecap="round" stroke-linejoin="round"/><rect x="-33" y="72" width="78" height="48" fill="#4b786d" stroke="#23333c" stroke-width="2" rx="0"/><rect x="-20" y="82" width="45" height="7" fill="#cfaa78" stroke="none" stroke-width="2" rx="0"/><rect x="90" y="-161" width="86" height="153" fill="#b4c0a6" stroke="#23333c" stroke-width="3" rx="0"/><rect x="141" y="-158" width="34" height="147" fill="#659b88" stroke="none" stroke-width="2" rx="0"/><ellipse cx="133" cy="-161" rx="43" ry="15" fill="#e2d6ad" stroke="#23333c" stroke-width="3"/><path d="M90-105H176M90-38H176" fill="none" stroke="#4b786d" stroke-width="9" stroke-linecap="round" stroke-linejoin="round"/><path d="M111-155V-20" fill="none" stroke="#e2d6ad" stroke-width="3" stroke-linecap="round" stroke-linejoin="round"/><path d="M133-178V-195H80V-3" fill="none" stroke="#cfaa78" stroke-width="6" stroke-linecap="round" stroke-linejoin="round"/><path d="M133 34V70" fill="none" stroke="#a9bca4" stroke-width="13" stroke-linecap="round" stroke-linejoin="round"/><path d="M90 72L108 57H186L168 72Z" fill="#e2d6ad" stroke="#23333c" stroke-width="2" stroke-linecap="round" stroke-linejoin="round"/><rect x="90" y="72" width="78" height="48" fill="#4b786d" stroke="#23333c" stroke-width="2" rx="0"/><rect x="103" y="82" width="45" height="7" fill="#cfaa78" stroke="none" stroke-width="2" rx="0"/><path d="M-276-150V164M-328 6H-224M-312-98L-240 106M-312 108L-240-99" fill="none" stroke="#698e86" stroke-width="7" stroke-linecap="round" stroke-linejoin="round"/><ellipse cx="-272" cy="8" rx="64" ry="175" fill="none" stroke="#23333c" stroke-width="32"/><ellipse cx="-277" cy="2" rx="64" ry="175" fill="none" stroke="#c2c7aa" stroke-width="24"/><ellipse cx="-277" cy="2" rx="64" ry="175" fill="none" stroke="#416575" stroke-width="12"/><ellipse cx="-277" cy="2" rx="64" ry="175" fill="none" stroke="#cfaa78" stroke-width="3.5" stroke-dasharray="6 13"/><path d="M234 1V-229H410M300 20V-119H472" fill="none" stroke="#698e86" stroke-width="8" stroke-linecap="round" stroke-linejoin="round"/><rect x="260" y="-265" width="163" height="78" fill="#3c5773" stroke="#a9bca4" stroke-width="2.5" rx="0"/><path d="M272 -265V-187" fill="none" stroke="#91a5aa" stroke-width="1" stroke-linecap="round" stroke-linejoin="round"/><path d="M290 -265V-187" fill="none" stroke="#91a5aa" stroke-width="1" stroke-linecap="round" stroke-linejoin="round"/><path d="M308 -265V-187" fill="none" stroke="#91a5aa" stroke-width="1" stroke-linecap="round" stroke-linejoin="round"/><path d="M326 -265V-187" fill="none" stroke="#91a5aa" stroke-width="1" stroke-linecap="round" stroke-linejoin="round"/><path d="M344 -265V-187" fill="none" stroke="#91a5aa" stroke-width="1" stroke-linecap="round" stroke-linejoin="round"/><path d="M362 -265V-187" fill="none" stroke="#91a5aa" stroke-width="1" stroke-linecap="round" stroke-linejoin="round"/><path d="M380 -265V-187" fill="none" stroke="#91a5aa" stroke-width="1" stroke-linecap="round" stroke-linejoin="round"/><path d="M398 -265V-187" fill="none" stroke="#91a5aa" stroke-width="1" stroke-linecap="round" stroke-linejoin="round"/><path d="M416 -265V-187" fill="none" stroke="#91a5aa" stroke-width="1" stroke-linecap="round" stroke-linejoin="round"/><path d="M260 -226H423" fill="none" stroke="#91a5aa" stroke-width="1.5" stroke-linecap="round" stroke-linejoin="round"/><rect x="366" y="-153" width="137" height="78" fill="#3c5773" stroke="#a9bca4" stroke-width="2.5" rx="0"/><path d="M378 -153V-75" fill="none" stroke="#91a5aa" stroke-width="1" stroke-linecap="round" stroke-linejoin="round"/><path d="M396 -153V-75" fill="none" stroke="#91a5aa" stroke-width="1" stroke-linecap="round" stroke-linejoin="round"/><path d="M414 -153V-75" fill="none" stroke="#91a5aa" stroke-width="1" stroke-linecap="round" stroke-linejoin="round"/><path d="M432 -153V-75" fill="none" stroke="#91a5aa" stroke-width="1" stroke-linecap="round" stroke-linejoin="round"/><path d="M450 -153V-75" fill="none" stroke="#91a5aa" stroke-width="1" stroke-linecap="round" stroke-linejoin="round"/><path d="M468 -153V-75" fill="none" stroke="#91a5aa" stroke-width="1" stroke-linecap="round" stroke-linejoin="round"/><path d="M486 -153V-75" fill="none" stroke="#91a5aa" stroke-width="1" stroke-linecap="round" stroke-linejoin="round"/><path d="M366 -114H503" fill="none" stroke="#91a5aa" stroke-width="1.5" stroke-linecap="round" stroke-linejoin="round"/><path d="M310 32V164H246" fill="none" stroke="#a9bca4" stroke-width="9" stroke-linecap="round" stroke-linejoin="round"/><rect x="234" y="152" width="27" height="18" fill="#294755" stroke="#23333c" stroke-width="2" rx="0"/><text x="-58" y="25" font-family="DejaVu Sans, sans-serif" font-size="12" fill="#e2d6ad" font-weight="bold" letter-spacing="2">BAIKAL</text></g><path d="M107 0L207 326H1220L1324 0M874 0L852 326" fill="none" stroke="#a4b6aa" stroke-width="12" stroke-linecap="round" stroke-linejoin="round"/><g transform="translate(482 147) scale(.74)"><g transform="" data-character="tomas" data-pose="work-bust"><path d="M125 209L211 210L211 276L240 297L170 348L97 297L126 267Z" fill="#be9c83" stroke="#23333c" stroke-width="2.2" stroke-linecap="round" stroke-linejoin="round"/><path d="M126 226Q170 251 211 224L211 266L168 291L126 269Z" fill="#715a4b" stroke="none" stroke-width="3" stroke-linecap="round" stroke-linejoin="round" opacity="0.75"/><path d="M114 277L70 299Q14 314-14 374L-56 567H339L314 387Q303 331 248 305L210 276L169 310Z" fill="#395c78" stroke="#23333c" stroke-width="2.8" stroke-linecap="round" stroke-linejoin="round"/><path d="M210 277L248 305Q303 331 314 387L339 567H219L209 347Z" fill="#293f56" stroke="none" stroke-width="3" stroke-linecap="round" stroke-linejoin="round"/><path d="M114 278L169 310L211 277L225 303L190 347L143 339L96 304Z" fill="#87928d" stroke="#23333c" stroke-width="2.2" stroke-linecap="round" stroke-linejoin="round"/><path d="M114 278L135 327L117 347L85 313M211 277L194 327L218 347L244 309" fill="#395c78" stroke="#23333c" stroke-width="2.2" stroke-linecap="round" stroke-linejoin="round"/><path d="M132 349L134 561M75 315Q33 331 18 359M245 315Q276 330 287 354M12 390L-8 490M273 402L291 501" fill="none" stroke="#86a4b4" stroke-width="2" stroke-linecap="round" stroke-linejoin="round"/><path d="M184 395H252V452H184Z" fill="#293f56" stroke="#23333c" stroke-width="1.8" stroke-linecap="round" stroke-linejoin="round"/><path d="M190 403H246" fill="none" stroke="#86a4b4" stroke-width="1.4" stroke-linecap="round" stroke-linejoin="round"/><g transform="translate(-130 -121)"><g transform="" data-face="tomas" data-gaze="forward"><g transform="" fill="#3e3e3a"><path d="M222 250L211 187Q217 132 267 123Q330 109 367 152L378 207L368 261L353 231H238Z"/></g><ellipse cx="221" cy="253" rx="14" ry="25" fill="#be9c83" stroke="#785c48" stroke-width="1.6"/><path d="M218 246Q229 240 226 256L221 263" fill="none" stroke="#785c48" stroke-width="1.4" stroke-linecap="round" stroke-linejoin="round"/><ellipse cx="368" cy="253" rx="14" ry="25" fill="#be9c83" stroke="#785c48" stroke-width="1.6"/><path d="M365 246Q376 240 373 256L368 263" fill="none" stroke="#785c48" stroke-width="1.4" stroke-linecap="round" stroke-linejoin="round"/><path d="M227 170Q250 140 305 147Q356 154 370 195L363 289L345 338L311 373L281 368L246 329L229 281Z" fill="#be9c83" stroke="#785c48" stroke-width="2" stroke-linecap="round" stroke-linejoin="round" data-protect-face="tomas"/><path d="M343 197L361 218L357 282L345 322L317 346L303 354L320 331L339 288Z" fill="#715a4b" stroke="none" stroke-width="3" stroke-linecap="round" stroke-linejoin="round" opacity="0.42"/><path d="M237 212L252 215L249 249L256 285L246 292L233 263Z" fill="#e0c5a9" stroke="none" stroke-width="3" stroke-linecap="round" stroke-linejoin="round" opacity="0.45"/><path d="M264 283L277 283M324 282L338 278M279 344L300 349" fill="none" stroke="#e0c5a9" stroke-width="1.3" stroke-linecap="round" stroke-linejoin="round"/><g transform="" fill="#3e3e3a"><path d="M219 218L215 181Q226 139 270 132Q320 120 356 151L367 181L342 170L302 168L267 158L237 183L236 216L226 247Z"/><path d="M230 175Q237 155 254 151M256 147Q272 140 288 143M297 141Q319 141 335 152M341 154Q350 157 359 173" fill="none" stroke="#a3a398" stroke-width="2" stroke-linecap="round" opacity="0.4"/></g><path d="M244 222L277 226M317 227L350 222" stroke="#4a4137" stroke-width="5"/>
<path d="M244 240Q262 232 279 242Q260 249 244 240M315 242Q333 232 351 240Q333 249 315 242" fill="#cabfa7"/>
<g fill="#36443d"><circle cx="262" cy="240" r="5"/><circle cx="332" cy="240" r="5"/></g>
<path d="M299 233L289 286L309 288M275 319L318 321M283 334L310 337" fill="none" stroke="#785c48" stroke-width="3" stroke-linecap="round"/>
<path d="M251 272L265 278M330 278L349 267M267 205L292 208" fill="none" stroke="#a48165" stroke-width="2"/></g></g></g></g><g transform="translate(1034 141) scale(.86)"><path d="M124 223L220 218L228 279L289 309L196 392L83 328L135 284Z" fill="#b58e72" stroke="#23333c" stroke-width="3" stroke-linecap="round" stroke-linejoin="round"/><path d="M132 246L218 224L225 268L178 299L134 282Z" fill="#695346" stroke="none" stroke-width="3" stroke-linecap="round" stroke-linejoin="round"/><path d="M123 290L186 326L228 283L296 319Q355 347 390 437L419 601H-56L-17 399Q10 340 80 317Z" fill="#56798d" stroke="#23333c" stroke-width="3" stroke-linecap="round" stroke-linejoin="round"/><path d="M229 284L296 319Q355 347 390 437L419 601H198L183 402Z" fill="#3b566b" stroke="none" stroke-width="3" stroke-linecap="round" stroke-linejoin="round"/><path d="M113 296L183 327L228 283L244 311L206 359L172 372L97 328Z" fill="#a8b1a9" stroke="#23333c" stroke-width="2.2" stroke-linecap="round" stroke-linejoin="round"/><path d="M127 297L139 343L167 365L151 390L94 333M228 283L206 341L232 357L266 313" fill="#56798d" stroke="#23333c" stroke-width="2.2" stroke-linecap="round" stroke-linejoin="round"/><path d="M88 334Q41 357 26 390M267 327Q307 342 324 369M194 371L223 427M24 436L-5 550M322 403L352 491" fill="none" stroke="#8fa8ac" stroke-width="2" stroke-linecap="round" stroke-linejoin="round"/><g transform="translate(-160 -139) scale(1.12)"><g transform="" data-face="jonah" data-gaze="forward"><g transform="" fill="#39332f"><path d="M213 236L207 177Q218 117 280 120Q337 110 375 153L382 229L363 255H226Z"/></g><ellipse cx="221" cy="253" rx="14" ry="25" fill="#b58e72" stroke="#725645" stroke-width="1.6"/><path d="M218 246Q229 240 226 256L221 263" fill="none" stroke="#725645" stroke-width="1.4" stroke-linecap="round" stroke-linejoin="round"/><ellipse cx="368" cy="253" rx="14" ry="25" fill="#b58e72" stroke="#725645" stroke-width="1.6"/><path d="M365 246Q376 240 373 256L368 263" fill="none" stroke="#725645" stroke-width="1.4" stroke-linecap="round" stroke-linejoin="round"/><path d="M221 184Q229 137 295 139Q354 140 371 186L365 291L350 337L317 365L276 363L241 334L225 290Z" fill="#b58e72" stroke="#725645" stroke-width="2" stroke-linecap="round" stroke-linejoin="round" data-protect-face="jonah"/><path d="M343 197L361 218L357 282L345 322L317 346L303 354L320 331L339 288Z" fill="#695346" stroke="none" stroke-width="3" stroke-linecap="round" stroke-linejoin="round" opacity="0.42"/><path d="M237 212L252 215L249 249L256 285L246 292L233 263Z" fill="#dec0a1" stroke="none" stroke-width="3" stroke-linecap="round" stroke-linejoin="round" opacity="0.45"/><path d="M264 283L277 283M324 282L338 278M279 344L300 349" fill="none" stroke="#dec0a1" stroke-width="1.3" stroke-linecap="round" stroke-linejoin="round"/><g transform="" fill="#39332f"><path d="M212 205L215 169Q234 125 279 133L290 120L313 129L333 125L355 143L369 144L377 196L357 220L351 173L312 163L271 176L238 168L231 216L218 248Z"/><path d="M239 316L258 337L285 344L310 343L336 335L354 312L350 337L317 365L276 363L241 334Z" opacity="0.48"/></g><path d="M241 227L263 222L277 227M314 227L334 220L350 224" fill="none" stroke="#43392e" stroke-width="6"/>
<path d="M241 242Q258 232 277 242Q259 251 241 242M315 241Q333 231 350 240Q334 250 315 241" fill="#c5bda5"/>
<g fill="#30352f"><circle cx="261" cy="241" r="5"/><circle cx="330" cy="240" r="5"/></g>
<path d="M299 238L288 282L302 288L313 280M269 317Q296 312 326 314" fill="none" stroke="#725645" stroke-width="3" stroke-linecap="round"/>
<path d="M280 326L310 325M237 251L250 255M340 253L354 248" stroke="#997356" stroke-width="2"/><path d="M230 160Q249 140 274 141M307 140L329 146M347 160L359 177" fill="none" stroke="#687375" stroke-width="1.6" stroke-linecap="round" stroke-linejoin="round"/><path d="M251 319L256 325M262 331L267 335M278 339L283 341M307 340L312 337M333 324L338 318" fill="none" stroke="#8d7863" stroke-width="1" stroke-linecap="round" stroke-linejoin="round"/></g></g></g><path d="M0 407L192 368H551L876 407Z" fill="#193442" stroke="#23333c" stroke-width="3" stroke-linecap="round" stroke-linejoin="round"/><path d="M244 378H455L478 400H222Z" fill="#487365" stroke="#23333c" stroke-width="2" stroke-linecap="round" stroke-linejoin="round"/><path d="M268 389H421M507 389H549M580 389H632" fill="none" stroke="#a7d3b4" stroke-width="3" stroke-linecap="round" stroke-linejoin="round"/></svg><g class="title-card"><rect x="25" y="20" width="390" height="137" fill="#193442" stroke="#7bae97" stroke-width="1" rx="2" opacity=".97"/><rect x="25" y="20" width="5" height="137" fill="#a7d3b4" stroke="none" stroke-width="2" rx="0"/><text x="46" y="54" font-family="DejaVu Sans, sans-serif" font-size="26" fill="#f4deb0" font-weight="bold" letter-spacing="2.5">KAVERI</text><text x="46" y="82" font-family="DejaVu Sans, sans-serif" font-size="16" fill="#a7d3b4">Departing Baikal</text><text x="46" y="109" font-family="DejaVu Sans, sans-serif" font-size="13" fill="#f0c783" letter-spacing="0.4">Later that day</text><text x="46" y="136" font-family="DejaVu Sans, sans-serif" font-size="15" fill="#d6e2cd">Clearwell Waterworks' workship</text></g></g><rect x="0" y="0" width="1416" height="407" fill="none" stroke="#23333c" stroke-width="2.5" rx="0"/><g class="comic-lettering"><g data-balloon="0"><path d="M479 20H903Q927 20 927 44V119Q927 143 903 143H654L636 208L631 143H479Q455 143 455 119V44Q455 20 479 20Z" fill="#fff4dd" stroke="#23333c" stroke-width="2.5" stroke-linecap="round" stroke-linejoin="round"/><text x="473" y="45" font-family="DejaVu Sans, sans-serif" font-size="13" font-weight="bold" letter-spacing="1.3" fill="#376657">TOMAS</text><text x="473" y="72" font-family="DejaVu Sans, sans-serif" font-size="22" fill="#23333c">All aboard. Cargo space is</text><text x="473" y="99" font-family="DejaVu Sans, sans-serif" font-size="22" fill="#23333c">clear, and the Aquila course</text><text x="473" y="126" font-family="DejaVu Sans, sans-serif" font-size="22" fill="#23333c">is ready.</text></g><g data-balloon="1"><path d="M1023 20H1364Q1388 20 1388 44V65Q1388 89 1364 89H1215L1197 154L1192 89H1023Q999 89 999 65V44Q999 20 1023 20Z" fill="#fff4dd" stroke="#23333c" stroke-width="2.5" stroke-linecap="round" stroke-linejoin="round"/><text x="1017" y="45" font-family="DejaVu Sans, sans-serif" font-size="13" font-weight="bold" letter-spacing="1.3" fill="#376657">JONAH</text><text x="1017" y="72" font-family="DejaVu Sans, sans-serif" font-size="22" fill="#23333c">All right. Take us out.</text></g></g></svg>