<svg xmlns="http://www.w3.org/2000/svg" width="680" height="422" viewBox="0 0 680 422" overflow="visible" role="img" aria-label="A delivery record connects Ebro and Foundation while Elena explains the commitment." data-panel="3b"><defs><clipPath id="page-3-3b-panel-clip"><rect x="0" y="0" width="680" height="422" fill="white" stroke="none" stroke-width="2" rx="0"/></clipPath></defs><g clip-path="url(#page-3-3b-panel-clip)"><svg xmlns="http://www.w3.org/2000/svg" width="680" height="422" viewBox="0 0 680 422"><defs><linearGradient id="page-3-3b-space" x2=".8" y2="1"><stop stop-color="#344760" offset="0"/><stop stop-color="#202c42" offset="0.6"/><stop stop-color="#34434d" offset="1"/></linearGradient><linearGradient id="page-3-3b-planet" x2=".9" y2=".6"><stop stop-color="#f4d9a0" offset="0"/><stop stop-color="#d3ae83" offset="0.58"/><stop stop-color="#73677d" offset="1"/></linearGradient><clipPath id="page-3-3b-globe"><circle r="310"/></clipPath></defs><rect x="0" y="0" width="680" height="422" fill="#c7a282" stroke="none" stroke-width="2" rx="0"/><path d="M0 0H394.4L292.4 422H0Z" fill="#d9b894" stroke="none" stroke-width="3" stroke-linecap="round" stroke-linejoin="round"/><path d="M571.1999999999999 0H680V422H605.2Z" fill="#487365" stroke="#23333c" stroke-width="2" stroke-linecap="round" stroke-linejoin="round"/><path d="M591.6 0V422M578.0 286.96000000000004H680" fill="none" stroke="#88a68c" stroke-width="1.8" stroke-linecap="round" stroke-linejoin="round"/><path d="M0 354.47999999999996L204.0 295.4L455.6 422H0Z" fill="#597e70" stroke="#23333c" stroke-width="2" stroke-linecap="round" stroke-linejoin="round"/><path d="M0 362.92L204.0 303.84L326.4 367.14" fill="none" stroke="#b2c2a1" stroke-width="2" stroke-linecap="round" stroke-linejoin="round"/><g transform="translate(340 126) scale(.94)"><path d="M127 217L213 212L209 285L241 308L181 356L95 308L128 272Z" fill="#b98b72" stroke="#23333c" stroke-width="3" stroke-linecap="round" stroke-linejoin="round"/><path d="M131 237Q171 263 210 231L209 271L175 293L128 275Z" fill="#79534a" stroke="none" stroke-width="3" stroke-linecap="round" stroke-linejoin="round"/><path d="M112 286L66 305Q-9 323 -47 419L-79 564H326L311 391Q298 327 237 309L210 286L175 317Z" fill="#508c79" stroke="#23333c" stroke-width="3" stroke-linecap="round" stroke-linejoin="round"/><path d="M210 287L237 309Q298 327 311 391L326 564H219L212 349Z" fill="#366456" stroke="none" stroke-width="3" stroke-linecap="round" stroke-linejoin="round"/><path d="M110 287L175 317L210 287L221 316L196 353L140 339L97 313Z" fill="#dbcdb0" stroke="#23333c" stroke-width="3" stroke-linecap="round" stroke-linejoin="round"/><path d="M139 339L195 351L184 564H119Z" fill="#294841" stroke="none" stroke-width="3" stroke-linecap="round" stroke-linejoin="round"/><path d="M108 287L132 335L107 351L76 320M210 287L197 333L218 350L243 316" fill="#508c79" stroke="#23333c" stroke-width="3" stroke-linecap="round" stroke-linejoin="round"/><path d="M80 322L111 354L93 419M216 354L227 407M-12 374L17 426L14 532M272 376L256 425" fill="none" stroke="#2b5149" stroke-width="2.5" stroke-linecap="round" stroke-linejoin="round"/><path d="M65 313Q17 331 -7 370M246 322Q275 333 287 358" fill="none" stroke="#a1c5a6" stroke-width="3" stroke-linecap="round" stroke-linejoin="round"/><path d="M-18 452L72 470L61 510L-27 492Z" fill="#508c79" stroke="#23333c" stroke-width="2" stroke-linecap="round" stroke-linejoin="round"/><path d="M-13 460L64 477" fill="none" stroke="#a1c5a6" stroke-width="1.5" stroke-linecap="round" stroke-linejoin="round"/><g transform="translate(-159 -131) scale(1.08)"><g transform="" data-face="elena" data-gaze="forward"><g transform="" fill="#484451"><path d="M208 290L204 183Q210 119 287 117Q365 107 389 179L389 310L345 339L240 327Z"/></g><ellipse cx="221" cy="253" rx="14" ry="25" fill="#b98b72" stroke="#79534a" stroke-width="1.6"/><path d="M218 246Q229 240 226 256L221 263" fill="none" stroke="#79534a" stroke-width="1.4" stroke-linecap="round" stroke-linejoin="round"/><ellipse cx="368" cy="253" rx="14" ry="25" fill="#b98b72" stroke="#79534a" stroke-width="1.6"/><path d="M365 246Q376 240 373 256L368 263" fill="none" stroke="#79534a" stroke-width="1.4" stroke-linecap="round" stroke-linejoin="round"/><path d="M224 192Q235 145 300 146Q354 149 370 197L364 288Q350 340 306 364L277 357Q242 337 229 292Z" fill="#b98b72" stroke="#79534a" stroke-width="2" stroke-linecap="round" stroke-linejoin="round" data-protect-face="elena"/><path d="M343 197L361 218L357 282L345 322L317 346L303 354L320 331L339 288Z" fill="#79534a" stroke="none" stroke-width="3" stroke-linecap="round" stroke-linejoin="round" opacity="0.42"/><path d="M237 212L252 215L249 249L256 285L246 292L233 263Z" fill="#edc3a1" stroke="none" stroke-width="3" stroke-linecap="round" stroke-linejoin="round" opacity="0.45"/><path d="M264 283L277 283M324 282L338 278M279 344L300 349" fill="none" stroke="#edc3a1" stroke-width="1.3" stroke-linecap="round" stroke-linejoin="round"/><g transform="" fill="#484451"><path d="M210 239L214 179Q229 122 294 128Q353 115 379 179L378 241L358 219L350 169Q309 209 236 188L232 240Z"/><path d="M235 164Q271 134 315 142M246 177Q307 170 342 145" fill="none" stroke="#c5b9a4" stroke-width="9"/></g><path d="M243 227L277 224M315 225L348 230" fill="none" stroke="#534147" stroke-width="5"/><path d="M244 242Q261 235 277 244M315 244Q333 235 351 243" fill="none" stroke="#342d3b" stroke-width="5"/><path d="M299 244L288 281L307 286M269 315Q298 331 329 310M242 265L258 270M335 270L351 262" fill="none" stroke="#79534a" stroke-width="3"/><path d="M244 242Q261 232 277 244Q262 253 244 242ZM315 244Q333 233 351 243Q333 254 315 244Z" fill="#eee1c6" stroke="#342d3b" stroke-width="1.5" stroke-linecap="round" stroke-linejoin="round"/><ellipse cx="261" cy="243" rx="4.5" ry="5" fill="#526250" stroke="none" stroke-width="2"/><ellipse cx="333" cy="243" rx="4.5" ry="5" fill="#526250" stroke="none" stroke-width="2"/><path d="M246 253L259 256M337 256L350 251M284 332Q299 335 314 329" fill="none" stroke="#79534a" stroke-width="1.2" stroke-linecap="round" stroke-linejoin="round"/></g></g></g><g transform="translate(164 312) rotate(-8)"><rect x="-120" y="-65" width="240" height="153" fill="#193442" stroke="#23333c" stroke-width="3" rx="7"/><g transform="" data-story-slot="label-1"><text x="-98" y="-25" font-family="DejaVu Sans, sans-serif" font-size="29" fill="#a7d3b4" font-weight="bold" letter-spacing="0" text-anchor="start">EBRO</text></g><g transform="" data-story-slot="label-2"><text x="-98" y="11" font-family="DejaVu Sans, sans-serif" font-size="17" fill="#b2c2a1" font-weight="normal" letter-spacing="0" text-anchor="start">WATER DELIVERY</text></g><g transform="" data-story-slot="label-3"><text x="-98" y="52" font-family="DejaVu Sans, sans-serif" font-size="21" fill="#f0c783" font-weight="normal" letter-spacing="0" text-anchor="start">FOUNDATION</text></g></g></svg></g><rect x="0" y="0" width="680" height="422" fill="none" stroke="#23333c" stroke-width="2.5" rx="0"/><g class="comic-lettering"><g data-balloon="0"><path d="M44 20H318Q342 20 342 44V173Q342 197 318 197H330L365.6972526451237 233.6279273009784L307 197H44Q20 197 20 173V44Q20 20 44 20Z" fill="#fff4dd" stroke="#23333c" stroke-width="2.5" stroke-linecap="round" stroke-linejoin="round"/><text x="38" y="45" font-family="DejaVu Sans, sans-serif" font-size="13" font-weight="bold" letter-spacing="1.3" fill="#376657">ELENA</text><text x="38" y="72" font-family="DejaVu Sans, sans-serif" font-size="22" fill="#23333c">EarthWorks is expecting</text><text x="38" y="99" font-family="DejaVu Sans, sans-serif" font-size="22" fill="#23333c">Ebro's load aboard</text><text x="38" y="126" font-family="DejaVu Sans, sans-serif" font-size="22" fill="#23333c">Foundation. We need that</text><text x="38" y="153" font-family="DejaVu Sans, sans-serif" font-size="22" fill="#23333c">line back to have it</text><text x="38" y="180" font-family="DejaVu Sans, sans-serif" font-size="22" fill="#23333c">ready on time.</text></g></g></svg>