<svg xmlns="http://www.w3.org/2000/svg" width="1920" height="900" viewBox="0 0 1920 900">

  <defs>
    <radialGradient id="screen" cx="50%" cy="45%" r="75%">
      <stop offset="0" stop-color="#07190f"/><stop offset="1" stop-color="#030d08"/>
    </radialGradient>
    <radialGradient id="vignette" cx="50%" cy="50%" r="70%">
      <stop offset=".55" stop-color="#030d08" stop-opacity="0"/><stop offset="1" stop-color="#030d08" stop-opacity=".7"/>
    </radialGradient>
    <pattern id="scan" width="4" height="4" patternUnits="userSpaceOnUse">
      <rect width="4" height="1" fill="#001008" opacity=".5"/>
    </pattern>
    <pattern id="grid" width="120" height="120" patternUnits="userSpaceOnUse">
      <path d="M120 0H0V120" fill="none" stroke="#164c31" stroke-opacity=".28"/>
    </pattern>
    <radialGradient id="moon" cx="40%" cy="30%" r="80%">
      <stop offset="0" stop-color="#1e4431"/><stop offset=".55" stop-color="#0d2418"/><stop offset="1" stop-color="#040f09"/>
    </radialGradient>
    <radialGradient id="flash">
      <stop offset="0" stop-color="#e8fff0"/><stop offset=".18" stop-color="#c0ffd4"/><stop offset=".45" stop-color="#4ed184" stop-opacity=".85"/><stop offset="1" stop-color="#4ed184" stop-opacity="0"/>
    </radialGradient>
    <radialGradient id="ember">
      <stop offset="0" stop-color="#ffd67a"/><stop offset=".4" stop-color="#c2a23b" stop-opacity=".8"/><stop offset="1" stop-color="#c2a23b" stop-opacity="0"/>
    </radialGradient>
    <radialGradient id="lamp">
      <stop offset="0" stop-color="#c2a23b" stop-opacity=".55"/><stop offset="1" stop-color="#c2a23b" stop-opacity="0"/>
    </radialGradient>
    <radialGradient id="screenlight">
      <stop offset="0" stop-color="#4ed184" stop-opacity=".45"/><stop offset="1" stop-color="#4ed184" stop-opacity="0"/>
    </radialGradient>
    <filter id="glow" x="-50%" y="-50%" width="200%" height="200%">
      <feGaussianBlur stdDeviation="6" result="b"/><feMerge><feMergeNode in="b"/><feMergeNode in="SourceGraphic"/></feMerge>
    </filter>
    <filter id="soft" x="-50%" y="-50%" width="200%" height="200%">
      <feGaussianBlur stdDeviation="14"/>
    </filter>
  <linearGradient id="shade-r" x1="0" x2="1" y1="0" y2="0"><stop offset="0" stop-color="#020a06" stop-opacity=".9"/><stop offset=".55" stop-color="#020a06" stop-opacity=".55"/><stop offset="1" stop-color="#020a06" stop-opacity="0"/></linearGradient>
  <linearGradient id="shade-l" x1="1" x2="0" y1="0" y2="0"><stop offset="0" stop-color="#020a06" stop-opacity=".9"/><stop offset=".55" stop-color="#020a06" stop-opacity=".55"/><stop offset="1" stop-color="#020a06" stop-opacity="0"/></linearGradient>
</defs>
  <rect width="1920" height="900" fill="#030d08"/>
  <rect width="1920" height="900" fill="url(#screen)"/>
  <rect width="1920" height="900" fill="url(#grid)"/>
  <g transform="translate(0 250) rotate(-7 960.0 0)"><line x1="-400" y1="-112" x2="2320" y2="-112" stroke="#267b4d" stroke-width="7.4" opacity="0.17"/><line x1="-400" y1="-73" x2="2320" y2="-73" stroke="#8fb69b" stroke-width="8.3" opacity="0.11"/><line x1="-400" y1="-42" x2="2320" y2="-42" stroke="#8fb69b" stroke-width="10.4" opacity="0.15"/><line x1="-400" y1="-4" x2="2320" y2="-4" stroke="#267b4d" stroke-width="12.0" opacity="0.19"/><line x1="-400" y1="37" x2="2320" y2="37" stroke="#8fb69b" stroke-width="6.8" opacity="0.23"/><line x1="-400" y1="67" x2="2320" y2="67" stroke="#8fb69b" stroke-width="8.3" opacity="0.27"/><line x1="-400" y1="106" x2="2320" y2="106" stroke="#267b4d" stroke-width="9.4" opacity="0.23"/></g>
  <circle cx="1799" cy="817" r="1.1" fill="#8fb69b" opacity="0.29"/><circle cx="1577" cy="643" r="2.3" fill="#8fb69b" opacity="0.39"/><circle cx="1155" cy="538" r="2.2" fill="#8fb69b" opacity="0.32"/><circle cx="832" cy="363" r="2.4" fill="#8fb69b" opacity="0.70"/><circle cx="1787" cy="486" r="1.9" fill="#8fb69b" opacity="0.37"/><circle cx="106" cy="63" r="1.9" fill="#8fb69b" opacity="0.39"/><circle cx="739" cy="771" r="2.1" fill="#8fb69b" opacity="0.50"/><circle cx="474" cy="60" r="1.7" fill="#8fb69b" opacity="0.31"/><circle cx="979" cy="859" r="2.3" fill="#8fb69b" opacity="0.33"/><circle cx="1684" cy="693" r="2.5" fill="#8fb69b" opacity="0.66"/><circle cx="1444" cy="688" r="1.7" fill="#8fb69b" opacity="0.69"/><circle cx="1810" cy="172" r="2.5" fill="#8fb69b" opacity="0.57"/><circle cx="889" cy="475" r="2.0" fill="#8fb69b" opacity="0.67"/><circle cx="962" cy="722" r="1.7" fill="#8fb69b" opacity="0.65"/><circle cx="1695" cy="418" r="2.1" fill="#8fb69b" opacity="0.66"/><circle cx="1372" cy="439" r="1.4" fill="#8fb69b" opacity="0.40"/><circle cx="1327" cy="176" r="2.8" fill="#8fb69b" opacity="0.37"/><circle cx="1717" cy="294" r="2.9" fill="#8fb69b" opacity="0.57"/><circle cx="968" cy="465" r="2.3" fill="#8fb69b" opacity="0.51"/><circle cx="614" cy="210" r="2.0" fill="#8fb69b" opacity="0.67"/><circle cx="1187" cy="102" r="2.6" fill="#8fb69b" opacity="0.58"/><circle cx="1710" cy="197" r="2.5" fill="#8fb69b" opacity="0.28"/><circle cx="1241" cy="264" r="1.5" fill="#8fb69b" opacity="0.64"/><circle cx="236" cy="468" r="2.7" fill="#8fb69b" opacity="0.36"/><circle cx="427" cy="762" r="1.8" fill="#8fb69b" opacity="0.57"/><circle cx="99" cy="337" r="1.3" fill="#8fb69b" opacity="0.55"/><circle cx="193" cy="823" r="1.1" fill="#8fb69b" opacity="0.58"/><circle cx="79" cy="250" r="2.6" fill="#8fb69b" opacity="0.32"/><circle cx="378" cy="607" r="1.8" fill="#8fb69b" opacity="0.27"/><circle cx="1862" cy="164" r="1.1" fill="#8fb69b" opacity="0.40"/><circle cx="1172" cy="649" r="1.2" fill="#8fb69b" opacity="0.40"/><circle cx="97" cy="408" r="2.5" fill="#8fb69b" opacity="0.58"/><circle cx="1700" cy="660" r="2.7" fill="#8fb69b" opacity="0.57"/><circle cx="910" cy="225" r="2.3" fill="#8fb69b" opacity="0.39"/><circle cx="228" cy="407" r="2.7" fill="#8fb69b" opacity="0.31"/><circle cx="1116" cy="362" r="2.0" fill="#8fb69b" opacity="0.31"/><circle cx="1806" cy="252" r="2.2" fill="#8fb69b" opacity="0.44"/><circle cx="73" cy="498" r="1.3" fill="#8fb69b" opacity="0.28"/><circle cx="102" cy="172" r="1.2" fill="#8fb69b" opacity="0.54"/><circle cx="975" cy="846" r="2.9" fill="#8fb69b" opacity="0.70"/><circle cx="468" cy="405" r="1.5" fill="#8fb69b" opacity="0.52"/><circle cx="1188" cy="696" r="2.4" fill="#8fb69b" opacity="0.37"/><circle cx="818" cy="471" r="1.0" fill="#8fb69b" opacity="0.27"/><circle cx="792" cy="131" r="2.4" fill="#8fb69b" opacity="0.36"/><circle cx="224" cy="189" r="1.5" fill="#8fb69b" opacity="0.35"/><circle cx="998" cy="421" r="1.6" fill="#8fb69b" opacity="0.54"/><circle cx="431" cy="783" r="2.9" fill="#8fb69b" opacity="0.58"/><circle cx="838" cy="459" r="2.2" fill="#8fb69b" opacity="0.27"/><circle cx="809" cy="471" r="1.4" fill="#8fb69b" opacity="0.29"/><circle cx="1517" cy="340" r="2.0" fill="#8fb69b" opacity="0.66"/><circle cx="1163" cy="277" r="3.0" fill="#8fb69b" opacity="0.42"/><circle cx="75" cy="602" r="1.2" fill="#8fb69b" opacity="0.39"/><circle cx="1587" cy="592" r="1.0" fill="#8fb69b" opacity="0.45"/><circle cx="796" cy="438" r="1.4" fill="#8fb69b" opacity="0.51"/><circle cx="176" cy="273" r="1.7" fill="#8fb69b" opacity="0.67"/><circle cx="181" cy="659" r="1.4" fill="#8fb69b" opacity="0.51"/><circle cx="761" cy="420" r="2.5" fill="#8fb69b" opacity="0.43"/><circle cx="264" cy="140" r="1.2" fill="#8fb69b" opacity="0.63"/><circle cx="1219" cy="827" r="2.4" fill="#8fb69b" opacity="0.26"/><circle cx="1253" cy="677" r="2.4" fill="#8fb69b" opacity="0.47"/><circle cx="698" cy="415" r="2.6" fill="#8fb69b" opacity="0.37"/><circle cx="1008" cy="432" r="2.9" fill="#8fb69b" opacity="0.61"/><circle cx="1755" cy="726" r="1.6" fill="#8fb69b" opacity="0.35"/><circle cx="939" cy="253" r="1.9" fill="#8fb69b" opacity="0.56"/><circle cx="1730" cy="520" r="2.6" fill="#8fb69b" opacity="0.29"/><circle cx="695" cy="858" r="1.3" fill="#8fb69b" opacity="0.44"/><circle cx="163" cy="111" r="2.8" fill="#8fb69b" opacity="0.69"/><circle cx="1232" cy="145" r="1.6" fill="#8fb69b" opacity="0.35"/><circle cx="1274" cy="599" r="1.9" fill="#8fb69b" opacity="0.49"/><circle cx="246" cy="484" r="2.9" fill="#8fb69b" opacity="0.59"/><circle cx="217" cy="464" r="2.4" fill="#8fb69b" opacity="0.37"/><circle cx="1687" cy="418" r="2.4" fill="#8fb69b" opacity="0.43"/><circle cx="1871" cy="682" r="2.1" fill="#8fb69b" opacity="0.32"/><circle cx="852" cy="64" r="2.2" fill="#8fb69b" opacity="0.65"/><circle cx="372" cy="458" r="2.0" fill="#8fb69b" opacity="0.43"/><circle cx="1347" cy="808" r="2.4" fill="#8fb69b" opacity="0.46"/><circle cx="1810" cy="311" r="2.5" fill="#8fb69b" opacity="0.55"/><circle cx="1441" cy="739" r="1.4" fill="#8fb69b" opacity="0.53"/><circle cx="781" cy="587" r="3.0" fill="#8fb69b" opacity="0.54"/><circle cx="61" cy="421" r="2.4" fill="#8fb69b" opacity="0.65"/><circle cx="1236" cy="709" r="1.0" fill="#8fb69b" opacity="0.67"/><circle cx="1382" cy="537" r="2.8" fill="#8fb69b" opacity="0.65"/><circle cx="225" cy="709" r="2.5" fill="#8fb69b" opacity="0.34"/><circle cx="1409" cy="521" r="1.4" fill="#8fb69b" opacity="0.61"/><circle cx="294" cy="542" r="1.9" fill="#8fb69b" opacity="0.36"/><circle cx="1082" cy="423" r="1.4" fill="#8fb69b" opacity="0.69"/><circle cx="174" cy="42" r="2.0" fill="#8fb69b" opacity="0.63"/><circle cx="1251" cy="659" r="2.0" fill="#8fb69b" opacity="0.55"/><circle cx="656" cy="259" r="2.0" fill="#8fb69b" opacity="0.26"/><circle cx="187" cy="658" r="1.3" fill="#8fb69b" opacity="0.59"/><circle cx="1483" cy="372" r="2.3" fill="#8fb69b" opacity="0.60"/><circle cx="1630" cy="151" r="1.3" fill="#8fb69b" opacity="0.42"/><circle cx="895" cy="282" r="1.0" fill="#8fb69b" opacity="0.50"/><circle cx="1819" cy="340" r="2.1" fill="#8fb69b" opacity="0.42"/><circle cx="855" cy="754" r="1.6" fill="#8fb69b" opacity="0.54"/><circle cx="930" cy="482" r="2.8" fill="#8fb69b" opacity="0.28"/><circle cx="1557" cy="289" r="2.3" fill="#8fb69b" opacity="0.61"/><circle cx="1242" cy="362" r="2.7" fill="#8fb69b" opacity="0.29"/><circle cx="1205" cy="361" r="2.1" fill="#8fb69b" opacity="0.63"/><circle cx="1508" cy="556" r="1.6" fill="#8fb69b" opacity="0.35"/><circle cx="882" cy="230" r="1.6" fill="#8fb69b" opacity="0.68"/><circle cx="246" cy="711" r="1.8" fill="#8fb69b" opacity="0.41"/><circle cx="626" cy="103" r="1.9" fill="#8fb69b" opacity="0.32"/><circle cx="853" cy="279" r="2.8" fill="#8fb69b" opacity="0.66"/><circle cx="853" cy="564" r="2.9" fill="#8fb69b" opacity="0.40"/><circle cx="223" cy="235" r="1.4" fill="#8fb69b" opacity="0.56"/><circle cx="728" cy="332" r="2.6" fill="#8fb69b" opacity="0.35"/><circle cx="1528" cy="559" r="1.8" fill="#8fb69b" opacity="0.62"/><circle cx="670" cy="760" r="2.9" fill="#8fb69b" opacity="0.48"/><circle cx="1310" cy="818" r="2.5" fill="#8fb69b" opacity="0.59"/><circle cx="1640" cy="807" r="2.5" fill="#8fb69b" opacity="0.69"/><circle cx="577" cy="550" r="2.3" fill="#8fb69b" opacity="0.42"/><circle cx="767" cy="183" r="2.9" fill="#8fb69b" opacity="0.41"/><circle cx="917" cy="773" r="1.4" fill="#8fb69b" opacity="0.68"/><circle cx="274" cy="63" r="1.7" fill="#8fb69b" opacity="0.41"/><circle cx="1728" cy="764" r="2.5" fill="#8fb69b" opacity="0.45"/><circle cx="1039" cy="234" r="2.7" fill="#8fb69b" opacity="0.43"/><circle cx="564" cy="563" r="1.3" fill="#8fb69b" opacity="0.39"/><circle cx="1744" cy="118" r="1.3" fill="#8fb69b" opacity="0.34"/><circle cx="502" cy="385" r="1.5" fill="#8fb69b" opacity="0.40"/><circle cx="494" cy="237" r="2.2" fill="#8fb69b" opacity="0.40"/><circle cx="726" cy="670" r="1.1" fill="#8fb69b" opacity="0.31"/><circle cx="1606" cy="392" r="2.6" fill="#8fb69b" opacity="0.31"/><circle cx="1002" cy="733" r="1.7" fill="#8fb69b" opacity="0.60"/><circle cx="1163" cy="364" r="3.0" fill="#8fb69b" opacity="0.43"/><circle cx="912" cy="548" r="1.6" fill="#8fb69b" opacity="0.63"/><circle cx="1139" cy="522" r="2.1" fill="#8fb69b" opacity="0.69"/><circle cx="1860" cy="729" r="1.9" fill="#8fb69b" opacity="0.44"/><circle cx="1006" cy="78" r="1.2" fill="#8fb69b" opacity="0.70"/><circle cx="276" cy="809" r="2.4" fill="#8fb69b" opacity="0.66"/><circle cx="182" cy="291" r="2.6" fill="#8fb69b" opacity="0.25"/><circle cx="235" cy="328" r="1.3" fill="#8fb69b" opacity="0.32"/><circle cx="1272" cy="115" r="2.9" fill="#8fb69b" opacity="0.54"/><circle cx="132" cy="777" r="1.5" fill="#8fb69b" opacity="0.47"/><circle cx="1068" cy="154" r="2.0" fill="#8fb69b" opacity="0.28"/><circle cx="407" cy="793" r="2.6" fill="#8fb69b" opacity="0.49"/><circle cx="1295" cy="758" r="1.3" fill="#8fb69b" opacity="0.47"/><circle cx="282" cy="136" r="1.2" fill="#8fb69b" opacity="0.35"/><circle cx="138" cy="216" r="1.8" fill="#8fb69b" opacity="0.53"/><circle cx="1620" cy="781" r="2.4" fill="#8fb69b" opacity="0.48"/><circle cx="1727" cy="174" r="1.2" fill="#8fb69b" opacity="0.62"/><circle cx="1194" cy="212" r="1.8" fill="#8fb69b" opacity="0.38"/><circle cx="833" cy="391" r="1.8" fill="#8fb69b" opacity="0.61"/><circle cx="1533" cy="501" r="1.9" fill="#8fb69b" opacity="0.38"/><circle cx="1448" cy="849" r="1.5" fill="#8fb69b" opacity="0.57"/><circle cx="1326" cy="580" r="1.1" fill="#8fb69b" opacity="0.50"/><circle cx="412" cy="199" r="2.2" fill="#8fb69b" opacity="0.54"/><circle cx="1191" cy="649" r="2.4" fill="#8fb69b" opacity="0.46"/><circle cx="128" cy="673" r="2.6" fill="#8fb69b" opacity="0.63"/><circle cx="1140" cy="71" r="1.4" fill="#8fb69b" opacity="0.30"/>
  <g transform="translate(400 210) rotate(0) scale(0.4 0.4)"><g>
      <path d="M-330,-96 L-280,-104 L120,-104 L120,-70 L-300,-70 Z" fill="#5d603e"/>
      <path d="M-320,70 L-320,100 L240,100 L240,70 Z" fill="#5d603e"/>
      <path d="M-100,-200 L-60,-104 L-20,-104 L-40,-200 Z" fill="#5d603e" stroke="#3e4130" stroke-width="2"/>
      <path d="M-100,200 L-60,100 L-20,100 L-40,200 Z" fill="#5d603e" stroke="#3e4130" stroke-width="2"/>
      <path d="M-360,-40 L-300,-70 L250,-70 L350,-30 L350,30 L250,70 L-300,70 L-360,40 Z" fill="#8f8656" stroke="#3e4130" stroke-width="3"/>
      <path d="M-300,-70 L250,-70 L250,-56 L-300,-56 Z" fill="#b0aa75"/>
      <path d="M-300,52 L250,52 L250,70 L-300,70 Z" fill="#5d603e"/>
      <path d="M-240,-70 V70 M-120,-70 V70 M0,-70 V70 M120,-70 V70 M200,-70 V70" stroke="#3e4130" stroke-width="2" opacity=".6"/>
      <rect x="-60" y="40" width="200" height="30" fill="#04120b" stroke="#3e4130" stroke-width="2"/>
      <rect x="-60" y="70" width="200" height="6" fill="#c2a23b"/>
      <path d="M110,-130 L130,-150 L210,-150 L230,-130 L230,-104 L110,-104 Z" fill="#b0aa75" stroke="#3e4130" stroke-width="3"/>
      <rect x="130" y="-104" width="10" height="6" fill="#4ed184"/><rect x="146" y="-104" width="10" height="6" fill="#4ed184"/><rect x="162" y="-104" width="10" height="6" fill="#4ed184"/><rect x="178" y="-104" width="10" height="6" fill="#4ed184"/><rect x="194" y="-104" width="10" height="6" fill="#4ed184"/>
      <g filter="url(#glow)"><rect x="-280" y="-22" width="16" height="8" fill="#4ed184"/><rect x="-244" y="-22" width="16" height="8" fill="#4ed184"/><rect x="-208" y="-22" width="16" height="8" fill="#4ed184"/><rect x="-172" y="-22" width="16" height="8" fill="#4ed184"/><rect x="-136" y="-22" width="16" height="8" fill="#4ed184"/><rect x="-100" y="-22" width="16" height="8" fill="#4ed184"/><rect x="-64" y="-22" width="16" height="8" fill="#4ed184"/><rect x="-28" y="-22" width="16" height="8" fill="#4ed184"/><rect x="8" y="-22" width="16" height="8" fill="#4ed184"/><rect x="44" y="-22" width="16" height="8" fill="#4ed184"/><rect x="80" y="-22" width="16" height="8" fill="#4ed184"/><rect x="116" y="-22" width="16" height="8" fill="#4ed184"/><rect x="152" y="-22" width="16" height="8" fill="#4ed184"/><rect x="188" y="-22" width="16" height="8" fill="#4ed184"/><rect x="224" y="-22" width="16" height="8" fill="#4ed184"/><rect x="-262" y="12" width="16" height="8" fill="#4ed184"/><rect x="-226" y="12" width="16" height="8" fill="#4ed184"/><rect x="-190" y="12" width="16" height="8" fill="#4ed184"/><rect x="-154" y="12" width="16" height="8" fill="#4ed184"/><rect x="-118" y="12" width="16" height="8" fill="#4ed184"/><rect x="-82" y="12" width="16" height="8" fill="#4ed184"/><rect x="-46" y="12" width="16" height="8" fill="#4ed184"/><rect x="-10" y="12" width="16" height="8" fill="#4ed184"/><rect x="26" y="12" width="16" height="8" fill="#4ed184"/><rect x="62" y="12" width="16" height="8" fill="#4ed184"/><rect x="98" y="12" width="16" height="8" fill="#4ed184"/><rect x="134" y="12" width="16" height="8" fill="#4ed184"/><rect x="170" y="12" width="16" height="8" fill="#4ed184"/><rect x="206" y="12" width="16" height="8" fill="#4ed184"/></g>
      <ellipse cx="-368" cy="-30" rx="10" ry="14" fill="#04120b" stroke="#5d603e" stroke-width="3"/><ellipse cx="-392" cy="-30" rx="22" ry="9" fill="#4ed184" opacity=".45" filter="url(#glow)"/><ellipse cx="-368" cy="0" rx="10" ry="14" fill="#04120b" stroke="#5d603e" stroke-width="3"/><ellipse cx="-392" cy="0" rx="22" ry="9" fill="#4ed184" opacity=".45" filter="url(#glow)"/><ellipse cx="-368" cy="30" rx="10" ry="14" fill="#04120b" stroke="#5d603e" stroke-width="3"/><ellipse cx="-392" cy="30" rx="22" ry="9" fill="#4ed184" opacity=".45" filter="url(#glow)"/>
      <text x="-230" y="4" font-family="IBM Plex Mono, DejaVu Sans Mono, Menlo, monospace" font-size="30" font-weight="600" letter-spacing="6" text-anchor="start" fill="#3e4130">MERIDIAN</text><text x="-40" y="86" font-family="IBM Plex Mono, DejaVu Sans Mono, Menlo, monospace" font-size="12" font-weight="400" letter-spacing="3" text-anchor="start" fill="#c2a23b">WE ARE EXPANDING</text><rect x="300" y="-14" width="32" height="28" fill="#c2a23b"/><text x="304" y="6" font-family="IBM Plex Mono, DejaVu Sans Mono, Menlo, monospace" font-size="16" font-weight="700" letter-spacing="0" text-anchor="start" fill="#06170f">EWI</text>
    </g></g>
  <line x1="760" y1="40" x2="760" y2="860" stroke="#b8da5d" stroke-width="3" stroke-dasharray="18 14" opacity=".7"/><text x="744" y="110" font-family="IBM Plex Mono, DejaVu Sans Mono, Menlo, monospace" font-size="18" font-weight="400" letter-spacing="4" text-anchor="end" fill="#b8da5d">EWI CLAIM K-7</text><text x="776" y="110" font-family="IBM Plex Mono, DejaVu Sans Mono, Menlo, monospace" font-size="18" font-weight="400" letter-spacing="4" text-anchor="start" fill="#c4c2ae">KESTREL</text>
  <g transform="translate(1240 560) rotate(0) scale(0.78 0.78)"><polygon points="546,250 493,322 438,398 267,436 90,456 -100,478 -328,479 -488,415 -594,337 -544,250 -559,168 -424,107 -268,63 -91,41 94,34 329,20 492,84 600,162" fill="url(#moon)" stroke="#0b2b1c" stroke-width="3"/><polyline points="-594,337 -544,250 -559,168 -424,107 -268,63 -91,41 94,34" fill="none" stroke="#267b4d" stroke-width="6" opacity=".7" filter="url(#glow)"/><ellipse cx="-186" cy="275" rx="62" ry="20" fill="none" stroke="#164c31" stroke-opacity=".5" stroke-width="2"/><ellipse cx="124" cy="338" rx="87" ry="28" fill="none" stroke="#164c31" stroke-opacity=".5" stroke-width="2"/><ellipse cx="-341" cy="362" rx="43" ry="14" fill="none" stroke="#164c31" stroke-opacity=".5" stroke-width="2"/><ellipse cx="310" cy="225" rx="50" ry="16" fill="none" stroke="#164c31" stroke-opacity=".5" stroke-width="2"/><ellipse cx="0" cy="400" rx="37" ry="12" fill="none" stroke="#164c31" stroke-opacity=".5" stroke-width="2"/>
      <rect x="-300" y="-60" width="600" height="70" fill="#8c8b78" stroke="#55564a" stroke-width="3"/>
      <path d="M-330,-360 L-250,-240 M330,-360 L250,-240 M-250,-140 L-110,-200 M250,-140 L110,-200" stroke="#8c8b78" stroke-width="12"/>
      <rect x="-470" y="-250" width="220" height="110" rx="44" fill="#c4c2ae" stroke="#55564a" stroke-width="3"/>
      <rect x="250" y="-250" width="220" height="110" rx="44" fill="#c4c2ae" stroke="#55564a" stroke-width="3"/>
      <rect x="-470" y="-250" width="220" height="24" rx="12" fill="#e6e4d2" opacity=".8"/>
      <rect x="250" y="-250" width="220" height="24" rx="12" fill="#e6e4d2" opacity=".8"/>
      <circle cx="-330" cy="-70" r="58" fill="#8c8b78" stroke="#55564a" stroke-width="3"/>
      <circle cx="330" cy="-70" r="58" fill="#8c8b78" stroke="#55564a" stroke-width="3"/>
      <rect x="250" y="-420" width="330" height="18" fill="#8c8b78" stroke="#55564a" stroke-width="2"/>
      <rect x="560" y="-436" width="30" height="50" fill="#c4c2ae" stroke="#55564a" stroke-width="2"/>
      <circle cx="575" cy="-446" r="8" fill="#e0b64a" filter="url(#glow)"/>
      <ellipse cx="0" cy="-300" rx="380" ry="70" fill="none" stroke="#c4c2ae" stroke-width="46"/>
      <ellipse cx="0" cy="-300" rx="380" ry="70" fill="none" stroke="#55564a" stroke-width="2"/>
      <ellipse cx="0" cy="-300" rx="336" ry="50" fill="none" stroke="#55564a" stroke-width="2"/>
      <path d="M-380,-300 A380,70 0 0 0 380,-300" fill="none" stroke="#e6e4d2" stroke-width="10" opacity=".6"/>
      <rect x="-110" y="-520" width="220" height="470" rx="26" fill="#c4c2ae" stroke="#55564a" stroke-width="3"/>
      <rect x="-110" y="-520" width="34" height="470" rx="18" fill="#e6e4d2" opacity=".85"/>
      <rect x="76" y="-520" width="34" height="470" rx="18" fill="#8c8b78" opacity=".8"/>
      <path d="M-110,-520 A110,110 0 0 1 110,-520 Z" fill="#e6e4d2" stroke="#55564a" stroke-width="3"/>
      <rect x="-6" y="-700" width="12" height="80" fill="#8c8b78"/>
      <path d="M0,-700 L-60,-640 M0,-700 L60,-640" stroke="#8c8b78" stroke-width="5"/>
      <circle cx="0" cy="-708" r="9" fill="#e0b64a" filter="url(#glow)"/>
      <g filter="url(#glow)"><rect x="-64" y="-470" width="14" height="8" fill="#e0b64a"/><rect x="-34" y="-470" width="14" height="8" fill="#e0b64a"/><rect x="-4" y="-470" width="14" height="8" fill="#e0b64a"/><rect x="26" y="-470" width="14" height="8" fill="#e0b64a"/><rect x="50" y="-470" width="14" height="8" fill="#e0b64a"/><rect x="-64" y="-428" width="14" height="8" fill="#e0b64a"/><rect x="-34" y="-428" width="14" height="8" fill="#e0b64a"/><rect x="-4" y="-428" width="14" height="8" fill="#e0b64a"/><rect x="26" y="-428" width="14" height="8" fill="#e0b64a"/><rect x="50" y="-428" width="14" height="8" fill="#e0b64a"/><rect x="-64" y="-386" width="14" height="8" fill="#e0b64a"/><rect x="-34" y="-386" width="14" height="8" fill="#e0b64a"/><rect x="-4" y="-386" width="14" height="8" fill="#e0b64a"/><rect x="26" y="-386" width="14" height="8" fill="#e0b64a"/><rect x="50" y="-386" width="14" height="8" fill="#e0b64a"/><rect x="-64" y="-344" width="14" height="8" fill="#e0b64a"/><rect x="-34" y="-344" width="14" height="8" fill="#e0b64a"/><rect x="-4" y="-344" width="14" height="8" fill="#e0b64a"/><rect x="26" y="-344" width="14" height="8" fill="#e0b64a"/><rect x="50" y="-344" width="14" height="8" fill="#e0b64a"/><rect x="-64" y="-302" width="14" height="8" fill="#e0b64a"/><rect x="-34" y="-302" width="14" height="8" fill="#e0b64a"/><rect x="-4" y="-302" width="14" height="8" fill="#e0b64a"/><rect x="26" y="-302" width="14" height="8" fill="#e0b64a"/><rect x="50" y="-302" width="14" height="8" fill="#e0b64a"/><rect x="-64" y="-260" width="14" height="8" fill="#e0b64a"/><rect x="-34" y="-260" width="14" height="8" fill="#e0b64a"/><rect x="-4" y="-260" width="14" height="8" fill="#e0b64a"/><rect x="26" y="-260" width="14" height="8" fill="#e0b64a"/><rect x="50" y="-260" width="14" height="8" fill="#e0b64a"/><rect x="-64" y="-218" width="14" height="8" fill="#e0b64a"/><rect x="-34" y="-218" width="14" height="8" fill="#e0b64a"/><rect x="-4" y="-218" width="14" height="8" fill="#e0b64a"/><rect x="26" y="-218" width="14" height="8" fill="#e0b64a"/><rect x="50" y="-218" width="14" height="8" fill="#e0b64a"/><rect x="-64" y="-176" width="14" height="8" fill="#e0b64a"/><rect x="-34" y="-176" width="14" height="8" fill="#e0b64a"/><rect x="-4" y="-176" width="14" height="8" fill="#e0b64a"/><rect x="26" y="-176" width="14" height="8" fill="#e0b64a"/><rect x="50" y="-176" width="14" height="8" fill="#e0b64a"/><rect x="-64" y="-134" width="14" height="8" fill="#e0b64a"/><rect x="-34" y="-134" width="14" height="8" fill="#e0b64a"/><rect x="-4" y="-134" width="14" height="8" fill="#e0b64a"/><rect x="26" y="-134" width="14" height="8" fill="#e0b64a"/><rect x="50" y="-134" width="14" height="8" fill="#e0b64a"/><rect x="361" y="-285" width="12" height="6" fill="#e0b64a"/><rect x="338" y="-273" width="12" height="6" fill="#e0b64a"/><rect x="305" y="-263" width="12" height="6" fill="#e0b64a"/><rect x="263" y="-254" width="12" height="6" fill="#e0b64a"/><rect x="212" y="-246" width="12" height="6" fill="#e0b64a"/><rect x="155" y="-240" width="12" height="6" fill="#e0b64a"/><rect x="92" y="-235" width="12" height="6" fill="#e0b64a"/><rect x="27" y="-233" width="12" height="6" fill="#e0b64a"/><rect x="-39" y="-233" width="12" height="6" fill="#e0b64a"/><rect x="-104" y="-235" width="12" height="6" fill="#e0b64a"/><rect x="-167" y="-240" width="12" height="6" fill="#e0b64a"/><rect x="-224" y="-246" width="12" height="6" fill="#e0b64a"/><rect x="-275" y="-254" width="12" height="6" fill="#e0b64a"/><rect x="-317" y="-263" width="12" height="6" fill="#e0b64a"/><rect x="-350" y="-273" width="12" height="6" fill="#e0b64a"/><rect x="-373" y="-285" width="12" height="6" fill="#e0b64a"/><rect x="-440" y="-205" width="12" height="8" fill="#e0b64a"/><rect x="-410" y="-205" width="12" height="8" fill="#e0b64a"/><rect x="-380" y="-205" width="12" height="8" fill="#e0b64a"/><rect x="-350" y="-205" width="12" height="8" fill="#e0b64a"/><rect x="-320" y="-205" width="12" height="8" fill="#e0b64a"/><rect x="-290" y="-205" width="12" height="8" fill="#e0b64a"/><rect x="280" y="-205" width="12" height="8" fill="#e0b64a"/><rect x="310" y="-205" width="12" height="8" fill="#e0b64a"/><rect x="340" y="-205" width="12" height="8" fill="#e0b64a"/><rect x="370" y="-205" width="12" height="8" fill="#e0b64a"/><rect x="400" y="-205" width="12" height="8" fill="#e0b64a"/><rect x="430" y="-205" width="12" height="8" fill="#e0b64a"/></g>
      <text x="-380" y="-170" font-family="IBM Plex Mono, DejaVu Sans Mono, Menlo, monospace" font-size="26" font-weight="700" letter-spacing="6" text-anchor="start" fill="#55564a">SHELTER</text>
      <text x="300" y="-170" font-family="IBM Plex Mono, DejaVu Sans Mono, Menlo, monospace" font-size="18" font-weight="400" letter-spacing="5" text-anchor="start" fill="#55564a">KESTREL</text></g>
  <g transform="translate(640 610) rotate(6) scale(-1.0 1.0)">
      <path d="M-84,-26 L-60,-38 L50,-38 L86,-10 L86,10 L50,38 L-60,38 L-84,26 Z" fill="#c4c2ae" stroke="#55564a" stroke-width="2"/>
      <path d="M-60,-38 L50,-38 L50,-28 L-60,-28 Z" fill="#e6e4d2"/>
      <path d="M-60,26 L50,26 L50,38 L-60,38 Z" fill="#8c8b78"/>
      <path d="M44,-30 L58,-30 L76,-8 L76,4 L44,4 Z" fill="#04120b" stroke="#e6e4d2" stroke-width="2"/>
      <path d="M-30,-38 V38 M20,-38 V38" stroke="#55564a" stroke-width="2" opacity=".6"/>
      <rect x="-50" y="-14" width="10" height="7" fill="#e0b64a" filter="url(#glow)"/><rect x="-28" y="-14" width="10" height="7" fill="#e0b64a" filter="url(#glow)"/><rect x="-6" y="-14" width="10" height="7" fill="#e0b64a" filter="url(#glow)"/><rect x="16" y="-14" width="10" height="7" fill="#e0b64a" filter="url(#glow)"/><rect x="38" y="-14" width="10" height="7" fill="#e0b64a" filter="url(#glow)"/>
      <ellipse cx="-86" cy="-14" rx="6" ry="8" fill="#04120b" stroke="#55564a" stroke-width="2"/><ellipse cx="-100" cy="-14" rx="16" ry="6" fill="#c2a23b" opacity=".7" filter="url(#glow)"/><ellipse cx="-86" cy="14" rx="6" ry="8" fill="#04120b" stroke="#55564a" stroke-width="2"/><ellipse cx="-100" cy="14" rx="16" ry="6" fill="#c2a23b" opacity=".7" filter="url(#glow)"/>
      <g transform="scale(-1 1)"><text x="-20" y="24" font-family="IBM Plex Mono, DejaVu Sans Mono, Menlo, monospace" font-size="11" font-weight="700" letter-spacing="2" text-anchor="start" fill="#55564a">HARRIER</text></g></g>
  <line x1="720" y1="600" x2="1020" y2="440" stroke="#c2a23b" stroke-width="2" stroke-dasharray="6 10" opacity=".5"/>
  <rect width="1920" height="900" fill="url(#scan)"/>
  <rect width="1920" height="900" fill="url(#vignette)"/>
</svg>
