<svg xmlns="http://www.w3.org/2000/svg" width="1440" height="1000" viewBox="0 0 1440 1000">

  <defs>
    <radialGradient id="screen" cx="50%" cy="45%" r="75%">
      <stop offset="0" stop-color="#07190f"/><stop offset="1" stop-color="#030d08"/>
    </radialGradient>
    <radialGradient id="vignette" cx="50%" cy="50%" r="70%">
      <stop offset=".55" stop-color="#030d08" stop-opacity="0"/><stop offset="1" stop-color="#030d08" stop-opacity=".7"/>
    </radialGradient>
    <pattern id="scan" width="4" height="4" patternUnits="userSpaceOnUse">
      <rect width="4" height="1" fill="#001008" opacity=".5"/>
    </pattern>
    <pattern id="grid" width="120" height="120" patternUnits="userSpaceOnUse">
      <path d="M120 0H0V120" fill="none" stroke="#164c31" stroke-opacity=".28"/>
    </pattern>
    <radialGradient id="moon" cx="40%" cy="30%" r="80%">
      <stop offset="0" stop-color="#1e4431"/><stop offset=".55" stop-color="#0d2418"/><stop offset="1" stop-color="#040f09"/>
    </radialGradient>
    <radialGradient id="flash">
      <stop offset="0" stop-color="#e8fff0"/><stop offset=".18" stop-color="#c0ffd4"/><stop offset=".45" stop-color="#4ed184" stop-opacity=".85"/><stop offset="1" stop-color="#4ed184" stop-opacity="0"/>
    </radialGradient>
    <radialGradient id="ember">
      <stop offset="0" stop-color="#ffd67a"/><stop offset=".4" stop-color="#c2a23b" stop-opacity=".8"/><stop offset="1" stop-color="#c2a23b" stop-opacity="0"/>
    </radialGradient>
    <radialGradient id="lamp">
      <stop offset="0" stop-color="#c2a23b" stop-opacity=".55"/><stop offset="1" stop-color="#c2a23b" stop-opacity="0"/>
    </radialGradient>
    <radialGradient id="screenlight">
      <stop offset="0" stop-color="#4ed184" stop-opacity=".45"/><stop offset="1" stop-color="#4ed184" stop-opacity="0"/>
    </radialGradient>
    <filter id="glow" x="-50%" y="-50%" width="200%" height="200%">
      <feGaussianBlur stdDeviation="6" result="b"/><feMerge><feMergeNode in="b"/><feMergeNode in="SourceGraphic"/></feMerge>
    </filter>
    <filter id="soft" x="-50%" y="-50%" width="200%" height="200%">
      <feGaussianBlur stdDeviation="14"/>
    </filter>
  <linearGradient id="shade-r" x1="0" x2="1" y1="0" y2="0"><stop offset="0" stop-color="#020a06" stop-opacity=".9"/><stop offset=".55" stop-color="#020a06" stop-opacity=".55"/><stop offset="1" stop-color="#020a06" stop-opacity="0"/></linearGradient>
  <linearGradient id="shade-l" x1="1" x2="0" y1="0" y2="0"><stop offset="0" stop-color="#020a06" stop-opacity=".9"/><stop offset=".55" stop-color="#020a06" stop-opacity=".55"/><stop offset="1" stop-color="#020a06" stop-opacity="0"/></linearGradient>
</defs>
  <rect width="1440" height="1000" fill="#030d08"/>
  <rect width="1440" height="1000" fill="#020a06"/>
  <rect x="104" y="84" width="1232" height="832" rx="14" fill="#3a3f2c" stroke="#8f8656" stroke-width="5"/><rect x="130" y="110" width="1180" height="780" fill="#04120b" stroke="#267b4d" stroke-width="3"/><line x1="130" y1="170" x2="1310" y2="170" stroke="#164c31" stroke-opacity=".5"/><line x1="130" y1="230" x2="1310" y2="230" stroke="#164c31" stroke-opacity=".5"/><line x1="130" y1="290" x2="1310" y2="290" stroke="#164c31" stroke-opacity=".5"/><line x1="130" y1="350" x2="1310" y2="350" stroke="#164c31" stroke-opacity=".5"/><line x1="130" y1="410" x2="1310" y2="410" stroke="#164c31" stroke-opacity=".5"/><line x1="130" y1="470" x2="1310" y2="470" stroke="#164c31" stroke-opacity=".5"/><line x1="130" y1="530" x2="1310" y2="530" stroke="#164c31" stroke-opacity=".5"/><line x1="130" y1="590" x2="1310" y2="590" stroke="#164c31" stroke-opacity=".5"/><line x1="130" y1="650" x2="1310" y2="650" stroke="#164c31" stroke-opacity=".5"/><line x1="130" y1="710" x2="1310" y2="710" stroke="#164c31" stroke-opacity=".5"/><line x1="130" y1="770" x2="1310" y2="770" stroke="#164c31" stroke-opacity=".5"/><line x1="130" y1="830" x2="1310" y2="830" stroke="#164c31" stroke-opacity=".5"/><line x1="190" y1="110" x2="190" y2="890" stroke="#164c31" stroke-opacity=".5"/><line x1="250" y1="110" x2="250" y2="890" stroke="#164c31" stroke-opacity=".5"/><line x1="310" y1="110" x2="310" y2="890" stroke="#164c31" stroke-opacity=".5"/><line x1="370" y1="110" x2="370" y2="890" stroke="#164c31" stroke-opacity=".5"/><line x1="430" y1="110" x2="430" y2="890" stroke="#164c31" stroke-opacity=".5"/><line x1="490" y1="110" x2="490" y2="890" stroke="#164c31" stroke-opacity=".5"/><line x1="550" y1="110" x2="550" y2="890" stroke="#164c31" stroke-opacity=".5"/><line x1="610" y1="110" x2="610" y2="890" stroke="#164c31" stroke-opacity=".5"/><line x1="670" y1="110" x2="670" y2="890" stroke="#164c31" stroke-opacity=".5"/><line x1="730" y1="110" x2="730" y2="890" stroke="#164c31" stroke-opacity=".5"/><line x1="790" y1="110" x2="790" y2="890" stroke="#164c31" stroke-opacity=".5"/><line x1="850" y1="110" x2="850" y2="890" stroke="#164c31" stroke-opacity=".5"/><line x1="910" y1="110" x2="910" y2="890" stroke="#164c31" stroke-opacity=".5"/><line x1="970" y1="110" x2="970" y2="890" stroke="#164c31" stroke-opacity=".5"/><line x1="1030" y1="110" x2="1030" y2="890" stroke="#164c31" stroke-opacity=".5"/><line x1="1090" y1="110" x2="1090" y2="890" stroke="#164c31" stroke-opacity=".5"/><line x1="1150" y1="110" x2="1150" y2="890" stroke="#164c31" stroke-opacity=".5"/><line x1="1210" y1="110" x2="1210" y2="890" stroke="#164c31" stroke-opacity=".5"/><line x1="1270" y1="110" x2="1270" y2="890" stroke="#164c31" stroke-opacity=".5"/><rect x="130" y="110" width="1180" height="34" fill="#183426" opacity=".9"/><text x="146" y="134" font-family="IBM Plex Mono, DejaVu Sans Mono, Menlo, monospace" font-size="19" font-weight="400" letter-spacing="3" text-anchor="start" fill="#c0ffd4">CUTTER ONE // COMMS // GUARD CHANNEL // SIGNAL 12%</text><rect x="1280" y="122" width="14" height="10" fill="#4ed184"/><rect x="1256" y="122" width="14" height="10" fill="#b8da5d"/><rect x="1232" y="122" width="14" height="10" fill="#4ed184"/><rect x="1208" y="122" width="14" height="10" fill="#c2a23b"/>
  <rect x="150" y="170" width="1140" height="270" fill="#06170f" opacity=".8"/>
  <polyline points="160,307 172,335 185,335 197,351 210,270 222,365 235,309 247,335 260,336 272,360 284,268 297,281 309,330 322,312 334,335 347,281 359,364 372,232 384,331 396,282 409,234 421,325 434,237 446,263 459,275 471,252 484,253 496,240 508,348 521,242 533,253 546,241 558,357 571,306 583,345 596,366 608,299 620,285 633,284 645,267 658,313 670,365 683,300 695,336 708,354 720,346 732,324 745,307 757,244 770,283 782,349 795,292 807,325 820,266 832,312 844,261 857,340 869,344 882,233 894,323 907,243 919,363 932,255 944,248 956,355 969,316 981,232 994,295 1006,346 1019,253 1031,335 1044,271 1056,292 1068,285 1081,238 1093,285 1106,303 1118,317 1131,306 1143,254 1156,315 1168,271 1180,356 1193,244 1205,339 1218,242 1230,309 1243,279 1255,294 1268,326 1280,342" fill="none" stroke="#4ed184" stroke-width="3" opacity=".9" filter="url(#glow)"/>
  <text x="720" y="400" font-family="IBM Plex Mono, DejaVu Sans Mono, Menlo, monospace" font-size="64" font-weight="700" letter-spacing="10" text-anchor="middle" fill="#c0ffd4" filter="url(#glow)">...ROSTER...</text>
  <text x="300" y="230" font-family="IBM Plex Mono, DejaVu Sans Mono, Menlo, monospace" font-size="22" font-weight="400" letter-spacing="4" text-anchor="start" fill="#267b4d">...MERIDIAN CONTR...</text>
  <text x="860" y="230" font-family="IBM Plex Mono, DejaVu Sans Mono, Menlo, monospace" font-size="22" font-weight="400" letter-spacing="4" text-anchor="start" fill="#267b4d">...SECTION N...</text>
  <text x="260" y="430" font-family="IBM Plex Mono, DejaVu Sans Mono, Menlo, monospace" font-size="22" font-weight="400" letter-spacing="4" text-anchor="start" fill="#267b4d" opacity=".7">...NO REC...</text>
  <g transform="translate(440 620) rotate(0) scale(1 1)"><path d="M-16,-8 L16,0 L-16,8 L-8,0 Z" fill="#4ed184" filter="url(#glow)"/><text x="28" y="6" font-family="IBM Plex Mono, DejaVu Sans Mono, Menlo, monospace" font-size="19" font-weight="400" letter-spacing="2" text-anchor="start" fill="#4ed184">CUTTER ONE</text><text x="28" y="30" font-family="IBM Plex Mono, DejaVu Sans Mono, Menlo, monospace" font-size="14" font-weight="400" letter-spacing="2" text-anchor="start" fill="#6ea985">INBOUND // OUTER HOLD</text></g>
  <g transform="translate(860 560) rotate(0) scale(1 1)"><path d="M-16,-8 L16,0 L-16,8 L-8,0 Z" fill="#4ed184" filter="url(#glow)"/><text x="28" y="6" font-family="IBM Plex Mono, DejaVu Sans Mono, Menlo, monospace" font-size="19" font-weight="400" letter-spacing="2" text-anchor="start" fill="#4ed184">MERIDIAN</text><text x="28" y="30" font-family="IBM Plex Mono, DejaVu Sans Mono, Menlo, monospace" font-size="14" font-weight="400" letter-spacing="2" text-anchor="start" fill="#6ea985">HOLDING // BAY OPEN</text></g>
  <circle cx="1120" cy="720" r="80" fill="#0a1711" stroke="#8fb69b" stroke-width="3"/>
  <g transform="translate(1040 640) rotate(0) scale(1 1)"><path d="M-14,-14 L14,14 M-14,14 L14,-14" stroke="#c2a23b" stroke-width="5" filter="url(#glow)"/><text x="28" y="6" font-family="IBM Plex Mono, DejaVu Sans Mono, Menlo, monospace" font-size="19" font-weight="400" letter-spacing="2" text-anchor="start" fill="#c2a23b">CONTACT // NO CODE</text><text x="28" y="30" font-family="IBM Plex Mono, DejaVu Sans Mono, Menlo, monospace" font-size="14" font-weight="400" letter-spacing="2" text-anchor="start" fill="#6ea985">DRIVE PLUME // CLEARING THE BODY</text></g>
  <path d="M1040,650 L900,580" stroke="#c2a23b" stroke-width="3" stroke-dasharray="8 8" opacity=".8"/>
  <text x="170" y="840" font-family="IBM Plex Mono, DejaVu Sans Mono, Menlo, monospace" font-size="17" font-weight="400" letter-spacing="2" text-anchor="start" fill="#c2a23b">GUARD CHANNEL: FRAGMENTS. VOICE: NOT CONTROL.</text>
  <rect width="1440" height="1000" fill="url(#scan)"/>
  <rect width="1440" height="1000" fill="url(#vignette)"/>
</svg>
