<svg xmlns="http://www.w3.org/2000/svg" width="736" height="337" viewBox="0 0 736 337" overflow="visible" role="img" aria-label="Tomas is not isolated as the scene's unkind person. Jonah takes the warning seriously before making a commitment on Clearwell's behalf." data-panel="9c"><defs><clipPath id="page-9-9c-panel-clip"><rect x="0" y="0" width="736" height="337" fill="white" stroke="none" stroke-width="2" rx="0"/></clipPath></defs><g clip-path="url(#page-9-9c-panel-clip)"><svg xmlns="http://www.w3.org/2000/svg" width="736" height="337" viewBox="0 0 736 337"><defs><linearGradient id="page-9-9c-space" x2=".8" y2="1"><stop stop-color="#344760" offset="0"/><stop stop-color="#202c42" offset="0.6"/><stop stop-color="#34434d" offset="1"/></linearGradient><linearGradient id="page-9-9c-planet" x2=".9" y2=".6"><stop stop-color="#f4d9a0" offset="0"/><stop stop-color="#d3ae83" offset="0.58"/><stop stop-color="#73677d" offset="1"/></linearGradient><clipPath id="page-9-9c-globe"><circle r="310"/></clipPath></defs><rect x="0" y="0" width="736" height="337" fill="#59727a" stroke="none" stroke-width="2" rx="0"/><path d="M0 0H235.52L125.12 337H0Z" fill="#304c58" stroke="none" stroke-width="3" stroke-linecap="round" stroke-linejoin="round"/><path d="M264.96 0V337" fill="none" stroke="#304c58" stroke-width="18" stroke-linecap="round" stroke-linejoin="round"/><path d="M259.96 0V337" fill="none" stroke="#91aba8" stroke-width="3" stroke-linecap="round" stroke-linejoin="round"/><path d="M669.76 0V337" fill="none" stroke="#304c58" stroke-width="18" stroke-linecap="round" stroke-linejoin="round"/><path d="M664.76 0V337" fill="none" stroke="#91aba8" stroke-width="3" stroke-linecap="round" stroke-linejoin="round"/><path d="M0 276.34H736" fill="none" stroke="#304c58" stroke-width="10" stroke-linecap="round" stroke-linejoin="round"/><g transform="translate(30 168) scale(.62)"><g transform="" data-character="tomas" data-pose="work-bust"><path d="M125 209L211 210L211 276L240 297L170 348L97 297L126 267Z" fill="#be9c83" stroke="#23333c" stroke-width="2.2" stroke-linecap="round" stroke-linejoin="round"/><path d="M126 226Q170 251 211 224L211 266L168 291L126 269Z" fill="#715a4b" stroke="none" stroke-width="3" stroke-linecap="round" stroke-linejoin="round" opacity="0.75"/><path d="M114 277L70 299Q14 314-14 374L-56 567H339L314 387Q303 331 248 305L210 276L169 310Z" fill="#395c78" stroke="#23333c" stroke-width="2.8" stroke-linecap="round" stroke-linejoin="round"/><path d="M210 277L248 305Q303 331 314 387L339 567H219L209 347Z" fill="#293f56" stroke="none" stroke-width="3" stroke-linecap="round" stroke-linejoin="round"/><path d="M114 278L169 310L211 277L225 303L190 347L143 339L96 304Z" fill="#87928d" stroke="#23333c" stroke-width="2.2" stroke-linecap="round" stroke-linejoin="round"/><path d="M114 278L135 327L117 347L85 313M211 277L194 327L218 347L244 309" fill="#395c78" stroke="#23333c" stroke-width="2.2" stroke-linecap="round" stroke-linejoin="round"/><path d="M132 349L134 561M75 315Q33 331 18 359M245 315Q276 330 287 354M12 390L-8 490M273 402L291 501" fill="none" stroke="#86a4b4" stroke-width="2" stroke-linecap="round" stroke-linejoin="round"/><path d="M184 395H252V452H184Z" fill="#293f56" stroke="#23333c" stroke-width="1.8" stroke-linecap="round" stroke-linejoin="round"/><path d="M190 403H246" fill="none" stroke="#86a4b4" stroke-width="1.4" stroke-linecap="round" stroke-linejoin="round"/><g transform="translate(-130 -121)"><g transform="" data-face="tomas" data-gaze="forward"><g transform="" fill="#3e3e3a"><path d="M222 250L211 187Q217 132 267 123Q330 109 367 152L378 207L368 261L353 231H238Z"/></g><ellipse cx="221" cy="253" rx="14" ry="25" fill="#be9c83" stroke="#785c48" stroke-width="1.6"/><path d="M218 246Q229 240 226 256L221 263" fill="none" stroke="#785c48" stroke-width="1.4" stroke-linecap="round" stroke-linejoin="round"/><ellipse cx="368" cy="253" rx="14" ry="25" fill="#be9c83" stroke="#785c48" stroke-width="1.6"/><path d="M365 246Q376 240 373 256L368 263" fill="none" stroke="#785c48" stroke-width="1.4" stroke-linecap="round" stroke-linejoin="round"/><path d="M227 170Q250 140 305 147Q356 154 370 195L363 289L345 338L311 373L281 368L246 329L229 281Z" fill="#be9c83" stroke="#785c48" stroke-width="2" stroke-linecap="round" stroke-linejoin="round" data-protect-face="tomas"/><path d="M343 197L361 218L357 282L345 322L317 346L303 354L320 331L339 288Z" fill="#715a4b" stroke="none" stroke-width="3" stroke-linecap="round" stroke-linejoin="round" opacity="0.42"/><path d="M237 212L252 215L249 249L256 285L246 292L233 263Z" fill="#e0c5a9" stroke="none" stroke-width="3" stroke-linecap="round" stroke-linejoin="round" opacity="0.45"/><path d="M264 283L277 283M324 282L338 278M279 344L300 349" fill="none" stroke="#e0c5a9" stroke-width="1.3" stroke-linecap="round" stroke-linejoin="round"/><g transform="" fill="#3e3e3a"><path d="M219 218L215 181Q226 139 270 132Q320 120 356 151L367 181L342 170L302 168L267 158L237 183L236 216L226 247Z"/><path d="M230 175Q237 155 254 151M256 147Q272 140 288 143M297 141Q319 141 335 152M341 154Q350 157 359 173" fill="none" stroke="#a3a398" stroke-width="2" stroke-linecap="round" opacity="0.4"/></g><path d="M244 222L277 226M317 227L350 222" stroke="#4a4137" stroke-width="5"/>
<path d="M244 240Q262 232 279 242Q260 249 244 240M315 242Q333 232 351 240Q333 249 315 242" fill="#cabfa7"/>
<g fill="#36443d"><circle cx="262" cy="240" r="5"/><circle cx="332" cy="240" r="5"/></g>
<path d="M299 233L289 286L309 288M275 319L318 321M283 334L310 337" fill="none" stroke="#785c48" stroke-width="3" stroke-linecap="round"/>
<path d="M251 272L265 278M330 278L349 267M267 205L292 208" fill="none" stroke="#a48165" stroke-width="2"/></g></g></g></g><g transform="translate(484 141) scale(.65)"><path d="M124 223L220 218L228 279L289 309L196 392L83 328L135 284Z" fill="#b58e72" stroke="#23333c" stroke-width="3" stroke-linecap="round" stroke-linejoin="round"/><path d="M132 246L218 224L225 268L178 299L134 282Z" fill="#695346" stroke="none" stroke-width="3" stroke-linecap="round" stroke-linejoin="round"/><path d="M123 290L186 326L228 283L296 319Q355 347 390 437L419 601H-56L-17 399Q10 340 80 317Z" fill="#56798d" stroke="#23333c" stroke-width="3" stroke-linecap="round" stroke-linejoin="round"/><path d="M229 284L296 319Q355 347 390 437L419 601H198L183 402Z" fill="#3b566b" stroke="none" stroke-width="3" stroke-linecap="round" stroke-linejoin="round"/><path d="M113 296L183 327L228 283L244 311L206 359L172 372L97 328Z" fill="#a8b1a9" stroke="#23333c" stroke-width="2.2" stroke-linecap="round" stroke-linejoin="round"/><path d="M127 297L139 343L167 365L151 390L94 333M228 283L206 341L232 357L266 313" fill="#56798d" stroke="#23333c" stroke-width="2.2" stroke-linecap="round" stroke-linejoin="round"/><path d="M88 334Q41 357 26 390M267 327Q307 342 324 369M194 371L223 427M24 436L-5 550M322 403L352 491" fill="none" stroke="#8fa8ac" stroke-width="2" stroke-linecap="round" stroke-linejoin="round"/><g transform="translate(-160 -139) scale(1.12)"><g transform="" data-face="jonah" data-gaze="forward"><g transform="" fill="#39332f"><path d="M213 236L207 177Q218 117 280 120Q337 110 375 153L382 229L363 255H226Z"/></g><ellipse cx="221" cy="253" rx="14" ry="25" fill="#b58e72" stroke="#725645" stroke-width="1.6"/><path d="M218 246Q229 240 226 256L221 263" fill="none" stroke="#725645" stroke-width="1.4" stroke-linecap="round" stroke-linejoin="round"/><ellipse cx="368" cy="253" rx="14" ry="25" fill="#b58e72" stroke="#725645" stroke-width="1.6"/><path d="M365 246Q376 240 373 256L368 263" fill="none" stroke="#725645" stroke-width="1.4" stroke-linecap="round" stroke-linejoin="round"/><path d="M221 184Q229 137 295 139Q354 140 371 186L365 291L350 337L317 365L276 363L241 334L225 290Z" fill="#b58e72" stroke="#725645" stroke-width="2" stroke-linecap="round" stroke-linejoin="round" data-protect-face="jonah"/><path d="M343 197L361 218L357 282L345 322L317 346L303 354L320 331L339 288Z" fill="#695346" stroke="none" stroke-width="3" stroke-linecap="round" stroke-linejoin="round" opacity="0.42"/><path d="M237 212L252 215L249 249L256 285L246 292L233 263Z" fill="#dec0a1" stroke="none" stroke-width="3" stroke-linecap="round" stroke-linejoin="round" opacity="0.45"/><path d="M264 283L277 283M324 282L338 278M279 344L300 349" fill="none" stroke="#dec0a1" stroke-width="1.3" stroke-linecap="round" stroke-linejoin="round"/><g transform="" fill="#39332f"><path d="M212 205L215 169Q234 125 279 133L290 120L313 129L333 125L355 143L369 144L377 196L357 220L351 173L312 163L271 176L238 168L231 216L218 248Z"/><path d="M239 316L258 337L285 344L310 343L336 335L354 312L350 337L317 365L276 363L241 334Z" opacity="0.48"/></g><path d="M241 227L263 222L277 227M314 227L334 220L350 224" fill="none" stroke="#43392e" stroke-width="6"/>
<path d="M241 242Q258 232 277 242Q259 251 241 242M315 241Q333 231 350 240Q334 250 315 241" fill="#c5bda5"/>
<g fill="#30352f"><circle cx="261" cy="241" r="5"/><circle cx="330" cy="240" r="5"/></g>
<path d="M299 238L288 282L302 288L313 280M269 317Q296 312 326 314" fill="none" stroke="#725645" stroke-width="3" stroke-linecap="round"/>
<path d="M280 326L310 325M237 251L250 255M340 253L354 248" stroke="#997356" stroke-width="2"/><path d="M230 160Q249 140 274 141M307 140L329 146M347 160L359 177" fill="none" stroke="#687375" stroke-width="1.6" stroke-linecap="round" stroke-linejoin="round"/><path d="M251 319L256 325M262 331L267 335M278 339L283 341M307 340L312 337M333 324L338 318" fill="none" stroke="#8d7863" stroke-width="1" stroke-linecap="round" stroke-linejoin="round"/></g></g></g><rect x="257" y="259" width="213" height="73" fill="#344d60" stroke="#23333c" stroke-width="3" rx="9"/><rect x="267" y="269" width="193" height="49" fill="#193442" stroke="#23333c" stroke-width="2" rx="5"/><path d="M279 324H448" fill="none" stroke="#91aba8" stroke-width="3" stroke-linecap="round" stroke-linejoin="round"/><g transform="" data-story-slot="work"><text x="284" y="300" font-family="DejaVu Sans, sans-serif" font-size="17" fill="#a7d3b4" font-weight="normal" letter-spacing="0" text-anchor="start">ROUTE WORK</text></g></svg></g><rect x="0" y="0" width="736" height="337" fill="none" stroke="#23333c" stroke-width="2.5" rx="0"/><g class="comic-lettering"><g data-balloon="0"><path d="M42 18H400Q424 18 424 42V90Q424 114 400 114H160L142 179L137 114H42Q18 114 18 90V42Q18 18 42 18Z" fill="#fff4dd" stroke="#23333c" stroke-width="2.5" stroke-linecap="round" stroke-linejoin="round"/><text x="36" y="43" font-family="DejaVu Sans, sans-serif" font-size="13" font-weight="bold" letter-spacing="1.3" fill="#376657">TOMAS</text><text x="36" y="70" font-family="DejaVu Sans, sans-serif" font-size="22" fill="#23333c">I want them out too. I want Elena</text><text x="36" y="97" font-family="DejaVu Sans, sans-serif" font-size="22" fill="#23333c">to know what we're spending.</text></g><g data-balloon="1"><path d="M468 18H694Q718 18 718 42V117Q718 141 694 141H621L603 179L598 141H468Q444 141 444 117V42Q444 18 468 18Z" fill="#fff4dd" stroke="#23333c" stroke-width="2.5" stroke-linecap="round" stroke-linejoin="round"/><text x="462" y="43" font-family="DejaVu Sans, sans-serif" font-size="13" font-weight="bold" letter-spacing="1.3" fill="#376657">JONAH</text><text x="462" y="70" font-family="DejaVu Sans, sans-serif" font-size="22" fill="#23333c">She will. Keep</text><text x="462" y="97" font-family="DejaVu Sans, sans-serif" font-size="22" fill="#23333c">working the</text><text x="462" y="124" font-family="DejaVu Sans, sans-serif" font-size="22" fill="#23333c">intercept.</text></g></g></svg>