<svg xmlns="http://www.w3.org/2000/svg" width="1500" height="1000" viewBox="0 0 1500 1000" role="img" aria-labelledby="title description"><title id="title">Rina and Jonah: original and expression variants</title><desc id="description">Rina tries an amused expression. Jonah tries a dry half-smile. Each is compared with the original features on the same body pose.</desc><rect x="0" y="0" width="1500" height="1000" fill="#f4ecd9" stroke="none" stroke-width="2" rx="0"></rect><text x="42" y="48" font-family="DejaVu Sans, sans-serif" font-size="21" fill="#376657" font-weight="bold" letter-spacing="2">NOVA PROTOCOL / EXPRESSION TRIAL</text><text x="42" y="93" font-family="DejaVu Sans, sans-serif" font-size="19" fill="#23333c">Original likenesses. Different reactions. The same reusable sources as page 1.</text><defs ><clipPath id="expression-rina-original"><rect x="0" y="0" width="688" height="342" fill="white" stroke="none" stroke-width="2" rx="0"></rect></clipPath></defs><g transform="translate(42 135)"><g transform="" clip-path="url(#expression-rina-original)"><g transform="" data-scheme="comic" data-instance="expression-rina-original"><rect x="0" y="0" width="688" height="342" fill="#d9b894" stroke="none" stroke-width="2" rx="0"></rect><g transform="translate(182 36) scale(.97)"><g transform="" data-character="rina" data-pose="work-bust"><path d="M125 209L211 210L211 276L240 297L170 348L97 297L126 267Z" fill="#8b6755" stroke="#23333c" stroke-width="2.2" stroke-linecap="round" stroke-linejoin="round"></path><path d="M126 226Q170 251 211 224L211 266L168 291L126 269Z" fill="#4d3c33" stroke="none" stroke-width="3" stroke-linecap="round" stroke-linejoin="round" opacity="0.75"></path><path d="M114 277L70 299Q14 314-14 374L-56 567H339L314 387Q303 331 248 305L210 276L169 310Z" fill="#ca8758" stroke="#23333c" stroke-width="2.8" stroke-linecap="round" stroke-linejoin="round"></path><path d="M210 277L248 305Q303 331 314 387L339 567H219L209 347Z" fill="#956347" stroke="none" stroke-width="3" stroke-linecap="round" stroke-linejoin="round"></path><path d="M114 278L169 310L211 277L225 303L190 347L143 339L96 304Z" fill="#b8ab86" stroke="#23333c" stroke-width="2.2" stroke-linecap="round" stroke-linejoin="round"></path><path d="M114 278L135 327L117 347L85 313M211 277L194 327L218 347L244 309" fill="#ca8758" stroke="#23333c" stroke-width="2.2" stroke-linecap="round" stroke-linejoin="round"></path><path d="M132 349L134 561M75 315Q33 331 18 359M245 315Q276 330 287 354M12 390L-8 490M273 402L291 501" fill="none" stroke="#e5b685" stroke-width="2" stroke-linecap="round" stroke-linejoin="round"></path><path d="M184 395H252V452H184Z" fill="#956347" stroke="#23333c" stroke-width="1.8" stroke-linecap="round" stroke-linejoin="round"></path><path d="M190 403H246" fill="none" stroke="#e5b685" stroke-width="1.4" stroke-linecap="round" stroke-linejoin="round"></path><g transform="translate(-130 -121)"><g transform="" data-face="rina" data-gaze="forward"><g transform="" fill="#292b2a"><path d="M210 244Q194 226 200 201Q185 180 205 162Q203 136 231 133Q239 111 264 119Q283 100 304 116Q334 107 348 129Q375 122 389 151Q413 169 396 188Q409 214 387 237L368 254Z"/></g><ellipse cx="221" cy="253" rx="14" ry="25" fill="#8b6755" stroke="#554035" stroke-width="1.6"></ellipse><path d="M218 246Q229 240 226 256L221 263" fill="none" stroke="#554035" stroke-width="1.4" stroke-linecap="round" stroke-linejoin="round"></path><ellipse cx="368" cy="253" rx="14" ry="25" fill="#8b6755" stroke="#554035" stroke-width="1.6"></ellipse><path d="M365 246Q376 240 373 256L368 263" fill="none" stroke="#554035" stroke-width="1.4" stroke-linecap="round" stroke-linejoin="round"></path><path d="M223 188Q245 145 297 148Q355 149 375 192L369 281Q359 333 318 363L276 362Q240 339 227 299L216 247Z" fill="#8b6755" stroke="#554035" stroke-width="2" stroke-linecap="round" stroke-linejoin="round"></path><path d="M343 197L361 218L357 282L345 322L317 346L303 354L320 331L339 288Z" fill="#4d3c33" stroke="none" stroke-width="3" stroke-linecap="round" stroke-linejoin="round" opacity="0.42"></path><path d="M237 212L252 215L249 249L256 285L246 292L233 263Z" fill="#c09a78" stroke="none" stroke-width="3" stroke-linecap="round" stroke-linejoin="round" opacity="0.45"></path><path d="M264 283L277 283M324 282L338 278M279 344L300 349" fill="none" stroke="#c09a78" stroke-width="1.3" stroke-linecap="round" stroke-linejoin="round"></path><g transform="" fill="#292b2a"><path d="M215 218L221 181Q236 170 253 184Q270 160 286 180Q307 164 326 180Q347 170 362 190L376 228L387 210L389 170L352 133L284 118L231 140L208 176Z"/><g fill="none" stroke="#625b4e" stroke-width="6" stroke-linecap="round"><path d="M222 153Q212 177 228 185M248 134Q233 158 248 175M277 124Q264 149 277 167M307 123Q296 149 309 164M337 134Q326 157 340 176M367 151Q357 176 372 187"/></g></g><path d="M241 223Q259 216 278 226M316 225Q335 216 355 226" fill="none" stroke="#41322a" stroke-width="6"/>
<path d="M241 242Q261 231 281 243Q261 255 241 242M314 243Q335 231 356 242Q335 253 314 243" fill="#c6b799"/>
<g fill="#2c342e"><circle cx="263" cy="242" r="6"/><circle cx="333" cy="242" r="6"/></g>
<path d="M297 244L284 280Q297 295 317 281" fill="none" stroke="#554035" stroke-width="4"/>
<path d="M269 315Q283 306 299 311Q313 306 333 315Q300 340 269 315Z" fill="#795346"/>
<path d="M271 315Q300 321 330 315" fill="none" stroke="#4c3830" stroke-width="3"/>
<path d="M240 267L257 274M337 274L356 266" stroke="#b38a69" stroke-width="3"/></g></g></g></g></g></g><rect x="0" y="0" width="688" height="342" fill="none" stroke="#23333c" stroke-width="2" rx="0"></rect><text x="20" y="32" font-family="DejaVu Sans, sans-serif" font-size="22" fill="#23333c" font-weight="bold">Rina / original</text></g><text x="42" y="512" font-family="DejaVu Sans, sans-serif" font-size="17" fill="#376657">The retained features, for comparison.</text><defs ><clipPath id="expression-rina-amused"><rect x="0" y="0" width="688" height="342" fill="white" stroke="none" stroke-width="2" rx="0"></rect></clipPath></defs><g transform="translate(770 135)"><g transform="" clip-path="url(#expression-rina-amused)"><g transform="" data-scheme="comic" data-instance="expression-rina-amused"><rect x="0" y="0" width="688" height="342" fill="#d9b894" stroke="none" stroke-width="2" rx="0"></rect><g transform="translate(182 36) scale(.97)"><g transform="" data-character="rina" data-pose="work-bust"><path d="M125 209L211 210L211 276L240 297L170 348L97 297L126 267Z" fill="#8b6755" stroke="#23333c" stroke-width="2.2" stroke-linecap="round" stroke-linejoin="round"></path><path d="M126 226Q170 251 211 224L211 266L168 291L126 269Z" fill="#4d3c33" stroke="none" stroke-width="3" stroke-linecap="round" stroke-linejoin="round" opacity="0.75"></path><path d="M114 277L70 299Q14 314-14 374L-56 567H339L314 387Q303 331 248 305L210 276L169 310Z" fill="#ca8758" stroke="#23333c" stroke-width="2.8" stroke-linecap="round" stroke-linejoin="round"></path><path d="M210 277L248 305Q303 331 314 387L339 567H219L209 347Z" fill="#956347" stroke="none" stroke-width="3" stroke-linecap="round" stroke-linejoin="round"></path><path d="M114 278L169 310L211 277L225 303L190 347L143 339L96 304Z" fill="#b8ab86" stroke="#23333c" stroke-width="2.2" stroke-linecap="round" stroke-linejoin="round"></path><path d="M114 278L135 327L117 347L85 313M211 277L194 327L218 347L244 309" fill="#ca8758" stroke="#23333c" stroke-width="2.2" stroke-linecap="round" stroke-linejoin="round"></path><path d="M132 349L134 561M75 315Q33 331 18 359M245 315Q276 330 287 354M12 390L-8 490M273 402L291 501" fill="none" stroke="#e5b685" stroke-width="2" stroke-linecap="round" stroke-linejoin="round"></path><path d="M184 395H252V452H184Z" fill="#956347" stroke="#23333c" stroke-width="1.8" stroke-linecap="round" stroke-linejoin="round"></path><path d="M190 403H246" fill="none" stroke="#e5b685" stroke-width="1.4" stroke-linecap="round" stroke-linejoin="round"></path><g transform="translate(-130 -121)"><g transform="" data-face="rina" data-gaze="forward" data-expression="amused"><g transform="" fill="#292b2a"><path d="M210 244Q194 226 200 201Q185 180 205 162Q203 136 231 133Q239 111 264 119Q283 100 304 116Q334 107 348 129Q375 122 389 151Q413 169 396 188Q409 214 387 237L368 254Z"/></g><ellipse cx="221" cy="253" rx="14" ry="25" fill="#8b6755" stroke="#554035" stroke-width="1.6"></ellipse><path d="M218 246Q229 240 226 256L221 263" fill="none" stroke="#554035" stroke-width="1.4" stroke-linecap="round" stroke-linejoin="round"></path><ellipse cx="368" cy="253" rx="14" ry="25" fill="#8b6755" stroke="#554035" stroke-width="1.6"></ellipse><path d="M365 246Q376 240 373 256L368 263" fill="none" stroke="#554035" stroke-width="1.4" stroke-linecap="round" stroke-linejoin="round"></path><path d="M223 188Q245 145 297 148Q355 149 375 192L369 281Q359 333 318 363L276 362Q240 339 227 299L216 247Z" fill="#8b6755" stroke="#554035" stroke-width="2" stroke-linecap="round" stroke-linejoin="round"></path><path d="M343 197L361 218L357 282L345 322L317 346L303 354L320 331L339 288Z" fill="#4d3c33" stroke="none" stroke-width="3" stroke-linecap="round" stroke-linejoin="round" opacity="0.42"></path><path d="M237 212L252 215L249 249L256 285L246 292L233 263Z" fill="#c09a78" stroke="none" stroke-width="3" stroke-linecap="round" stroke-linejoin="round" opacity="0.45"></path><path d="M264 283L277 283M324 282L338 278M279 344L300 349" fill="none" stroke="#c09a78" stroke-width="1.3" stroke-linecap="round" stroke-linejoin="round"></path><g transform="" fill="#292b2a"><path d="M215 218L221 181Q236 170 253 184Q270 160 286 180Q307 164 326 180Q347 170 362 190L376 228L387 210L389 170L352 133L284 118L231 140L208 176Z"/><g fill="none" stroke="#625b4e" stroke-width="6" stroke-linecap="round"><path d="M222 153Q212 177 228 185M248 134Q233 158 248 175M277 124Q264 149 277 167M307 123Q296 149 309 164M337 134Q326 157 340 176M367 151Q357 176 372 187"/></g></g><path d="M241 220Q259 211 278 220M316 222Q335 212 355 222" fill="none" stroke="#41322a" stroke-width="6"/>
<path d="M241 242Q261 231 281 243Q262 252 241 242M314 243Q335 231 356 242Q335 252 314 243" fill="#c6b799"/>
<g fill="#2c342e"><ellipse cx="263" cy="241.5" rx="6" ry="4.5"/><ellipse cx="333" cy="242" rx="6" ry="4.5"/></g>
<path d="M297 244L284 280Q297 295 317 281" fill="none" stroke="#554035" stroke-width="4"/>
<path d="M269 309Q284 312 299 314Q314 312 333 307Q301 340 269 309Z" fill="#795346"/>
<path d="M270 310Q299 330 332 308" fill="none" stroke="#4c3830" stroke-width="3"/>
<path d="M240 263L255 270M339 270L356 261" stroke="#b38a69" stroke-width="3"/></g></g></g></g></g></g><rect x="0" y="0" width="688" height="342" fill="none" stroke="#23333c" stroke-width="2" rx="0"></rect><text x="20" y="32" font-family="DejaVu Sans, sans-serif" font-size="22" fill="#23333c" font-weight="bold">Rina / amused</text></g><text x="770" y="512" font-family="DejaVu Sans, sans-serif" font-size="17" fill="#376657">Softer eyes and brows; a small closed-mouth smile.</text><defs ><clipPath id="expression-jonah-original"><rect x="0" y="0" width="688" height="342" fill="white" stroke="none" stroke-width="2" rx="0"></rect></clipPath></defs><g transform="translate(42 546)"><g transform="" clip-path="url(#expression-jonah-original)"><g transform="" data-scheme="comic" data-instance="expression-jonah-original"><rect x="0" y="0" width="688" height="342" fill="#d9b894" stroke="none" stroke-width="2" rx="0"></rect><g transform="translate(182 36) scale(.97)"><path d="M124 223L220 218L228 279L289 309L196 392L83 328L135 284Z" fill="#b58e72" stroke="#23333c" stroke-width="3" stroke-linecap="round" stroke-linejoin="round"></path><path d="M132 246L218 224L225 268L178 299L134 282Z" fill="#695346" stroke="none" stroke-width="3" stroke-linecap="round" stroke-linejoin="round"></path><path d="M123 290L186 326L228 283L296 319Q355 347 390 437L419 601H-56L-17 399Q10 340 80 317Z" fill="#56798d" stroke="#23333c" stroke-width="3" stroke-linecap="round" stroke-linejoin="round"></path><path d="M229 284L296 319Q355 347 390 437L419 601H198L183 402Z" fill="#3b566b" stroke="none" stroke-width="3" stroke-linecap="round" stroke-linejoin="round"></path><path d="M113 296L183 327L228 283L244 311L206 359L172 372L97 328Z" fill="#a8b1a9" stroke="#23333c" stroke-width="2.2" stroke-linecap="round" stroke-linejoin="round"></path><path d="M127 297L139 343L167 365L151 390L94 333M228 283L206 341L232 357L266 313" fill="#56798d" stroke="#23333c" stroke-width="2.2" stroke-linecap="round" stroke-linejoin="round"></path><path d="M88 334Q41 357 26 390M267 327Q307 342 324 369M194 371L223 427M24 436L-5 550M322 403L352 491" fill="none" stroke="#8fa8ac" stroke-width="2" stroke-linecap="round" stroke-linejoin="round"></path><g transform="translate(-160 -139) scale(1.12)"><g transform="" data-face="jonah" data-gaze="forward"><g transform="" fill="#39332f"><path d="M213 236L207 177Q218 117 280 120Q337 110 375 153L382 229L363 255H226Z"/></g><ellipse cx="221" cy="253" rx="14" ry="25" fill="#b58e72" stroke="#725645" stroke-width="1.6"></ellipse><path d="M218 246Q229 240 226 256L221 263" fill="none" stroke="#725645" stroke-width="1.4" stroke-linecap="round" stroke-linejoin="round"></path><ellipse cx="368" cy="253" rx="14" ry="25" fill="#b58e72" stroke="#725645" stroke-width="1.6"></ellipse><path d="M365 246Q376 240 373 256L368 263" fill="none" stroke="#725645" stroke-width="1.4" stroke-linecap="round" stroke-linejoin="round"></path><path d="M221 184Q229 137 295 139Q354 140 371 186L365 291L350 337L317 365L276 363L241 334L225 290Z" fill="#b58e72" stroke="#725645" stroke-width="2" stroke-linecap="round" stroke-linejoin="round"></path><path d="M343 197L361 218L357 282L345 322L317 346L303 354L320 331L339 288Z" fill="#695346" stroke="none" stroke-width="3" stroke-linecap="round" stroke-linejoin="round" opacity="0.42"></path><path d="M237 212L252 215L249 249L256 285L246 292L233 263Z" fill="#dec0a1" stroke="none" stroke-width="3" stroke-linecap="round" stroke-linejoin="round" opacity="0.45"></path><path d="M264 283L277 283M324 282L338 278M279 344L300 349" fill="none" stroke="#dec0a1" stroke-width="1.3" stroke-linecap="round" stroke-linejoin="round"></path><g transform="" fill="#39332f"><path d="M212 205L215 169Q234 125 279 133L290 120L313 129L333 125L355 143L369 144L377 196L357 220L351 173L312 163L271 176L238 168L231 216L218 248Z"/><path d="M239 316L258 337L285 344L310 343L336 335L354 312L350 337L317 365L276 363L241 334Z" opacity="0.48"/></g><path d="M241 227L263 222L277 227M314 227L334 220L350 224" fill="none" stroke="#43392e" stroke-width="6"/>
<path d="M241 242Q258 232 277 242Q259 251 241 242M315 241Q333 231 350 240Q334 250 315 241" fill="#c5bda5"/>
<g fill="#30352f"><circle cx="261" cy="241" r="5"/><circle cx="330" cy="240" r="5"/></g>
<path d="M299 238L288 282L302 288L313 280M269 317Q296 312 326 314" fill="none" stroke="#725645" stroke-width="3" stroke-linecap="round"/>
<path d="M280 326L310 325M237 251L250 255M340 253L354 248" stroke="#997356" stroke-width="2"/><path d="M230 160Q249 140 274 141M307 140L329 146M347 160L359 177" fill="none" stroke="#687375" stroke-width="1.6" stroke-linecap="round" stroke-linejoin="round"></path><path d="M251 319L256 325M262 331L267 335M278 339L283 341M307 340L312 337M333 324L338 318" fill="none" stroke="#8d7863" stroke-width="1" stroke-linecap="round" stroke-linejoin="round"></path></g></g></g></g></g><rect x="0" y="0" width="688" height="342" fill="none" stroke="#23333c" stroke-width="2" rx="0"></rect><text x="20" y="32" font-family="DejaVu Sans, sans-serif" font-size="22" fill="#23333c" font-weight="bold">Jonah / original</text></g><text x="42" y="923" font-family="DejaVu Sans, sans-serif" font-size="17" fill="#376657">The retained features, for comparison.</text><defs ><clipPath id="expression-jonah-wry"><rect x="0" y="0" width="688" height="342" fill="white" stroke="none" stroke-width="2" rx="0"></rect></clipPath></defs><g transform="translate(770 546)"><g transform="" clip-path="url(#expression-jonah-wry)"><g transform="" data-scheme="comic" data-instance="expression-jonah-wry"><rect x="0" y="0" width="688" height="342" fill="#d9b894" stroke="none" stroke-width="2" rx="0"></rect><g transform="translate(182 36) scale(.97)"><path d="M124 223L220 218L228 279L289 309L196 392L83 328L135 284Z" fill="#b58e72" stroke="#23333c" stroke-width="3" stroke-linecap="round" stroke-linejoin="round"></path><path d="M132 246L218 224L225 268L178 299L134 282Z" fill="#695346" stroke="none" stroke-width="3" stroke-linecap="round" stroke-linejoin="round"></path><path d="M123 290L186 326L228 283L296 319Q355 347 390 437L419 601H-56L-17 399Q10 340 80 317Z" fill="#56798d" stroke="#23333c" stroke-width="3" stroke-linecap="round" stroke-linejoin="round"></path><path d="M229 284L296 319Q355 347 390 437L419 601H198L183 402Z" fill="#3b566b" stroke="none" stroke-width="3" stroke-linecap="round" stroke-linejoin="round"></path><path d="M113 296L183 327L228 283L244 311L206 359L172 372L97 328Z" fill="#a8b1a9" stroke="#23333c" stroke-width="2.2" stroke-linecap="round" stroke-linejoin="round"></path><path d="M127 297L139 343L167 365L151 390L94 333M228 283L206 341L232 357L266 313" fill="#56798d" stroke="#23333c" stroke-width="2.2" stroke-linecap="round" stroke-linejoin="round"></path><path d="M88 334Q41 357 26 390M267 327Q307 342 324 369M194 371L223 427M24 436L-5 550M322 403L352 491" fill="none" stroke="#8fa8ac" stroke-width="2" stroke-linecap="round" stroke-linejoin="round"></path><g transform="translate(-160 -139) scale(1.12)"><g transform="" data-face="jonah" data-gaze="forward" data-expression="wry"><g transform="" fill="#39332f"><path d="M213 236L207 177Q218 117 280 120Q337 110 375 153L382 229L363 255H226Z"/></g><ellipse cx="221" cy="253" rx="14" ry="25" fill="#b58e72" stroke="#725645" stroke-width="1.6"></ellipse><path d="M218 246Q229 240 226 256L221 263" fill="none" stroke="#725645" stroke-width="1.4" stroke-linecap="round" stroke-linejoin="round"></path><ellipse cx="368" cy="253" rx="14" ry="25" fill="#b58e72" stroke="#725645" stroke-width="1.6"></ellipse><path d="M365 246Q376 240 373 256L368 263" fill="none" stroke="#725645" stroke-width="1.4" stroke-linecap="round" stroke-linejoin="round"></path><path d="M221 184Q229 137 295 139Q354 140 371 186L365 291L350 337L317 365L276 363L241 334L225 290Z" fill="#b58e72" stroke="#725645" stroke-width="2" stroke-linecap="round" stroke-linejoin="round"></path><path d="M343 197L361 218L357 282L345 322L317 346L303 354L320 331L339 288Z" fill="#695346" stroke="none" stroke-width="3" stroke-linecap="round" stroke-linejoin="round" opacity="0.42"></path><path d="M237 212L252 215L249 249L256 285L246 292L233 263Z" fill="#dec0a1" stroke="none" stroke-width="3" stroke-linecap="round" stroke-linejoin="round" opacity="0.45"></path><path d="M264 283L277 283M324 282L338 278M279 344L300 349" fill="none" stroke="#dec0a1" stroke-width="1.3" stroke-linecap="round" stroke-linejoin="round"></path><g transform="" fill="#39332f"><path d="M212 205L215 169Q234 125 279 133L290 120L313 129L333 125L355 143L369 144L377 196L357 220L351 173L312 163L271 176L238 168L231 216L218 248Z"/><path d="M239 316L258 337L285 344L310 343L336 335L354 312L350 337L317 365L276 363L241 334Z" opacity="0.48"/></g><path d="M241 221L263 214L277 220M314 228L334 223L350 226" fill="none" stroke="#43392e" stroke-width="6"/>
<path d="M241 241Q258 232 277 241Q259 249 241 241M315 242Q333 235 350 241Q334 248 315 242" fill="#c5bda5"/>
<g fill="#30352f"><ellipse cx="261" cy="240" rx="5" ry="4"/><ellipse cx="330" cy="241" rx="5" ry="3"/></g>
<path d="M299 238L288 282L302 288L313 280M269 317Q293 321 312 314Q321 311 326 306" fill="none" stroke="#725645" stroke-width="3" stroke-linecap="round"/>
<path d="M282 328L315 322M237 253L249 256M341 251L354 246" stroke="#997356" stroke-width="2"/><path d="M230 160Q249 140 274 141M307 140L329 146M347 160L359 177" fill="none" stroke="#687375" stroke-width="1.6" stroke-linecap="round" stroke-linejoin="round"></path><path d="M251 319L256 325M262 331L267 335M278 339L283 341M307 340L312 337M333 324L338 318" fill="none" stroke="#8d7863" stroke-width="1" stroke-linecap="round" stroke-linejoin="round"></path></g></g></g></g></g><rect x="0" y="0" width="688" height="342" fill="none" stroke="#23333c" stroke-width="2" rx="0"></rect><text x="20" y="32" font-family="DejaVu Sans, sans-serif" font-size="22" fill="#23333c" font-weight="bold">Jonah / wry</text></g><text x="770" y="923" font-family="DejaVu Sans, sans-serif" font-size="17" fill="#376657">One raised brow and an uneven half-smile.</text><text x="42" y="970" font-family="DejaVu Sans, sans-serif" font-size="12" fill="#657267" letter-spacing="1">PRIVATE EXPRESSION STUDY / HEADS, HAIR, NECKS, AND BODY POSES RETAINED</text></svg>
