<svg xmlns="http://www.w3.org/2000/svg" width="600" height="720" viewBox="0 0 600 720" role="img" aria-labelledby="title description">
<title id="title">Samir Bell: portrait concept</title>
<desc id="description">An authored civilian workship portrait study for Samir Bell, systems / first aid. Appearance, clothing, and underlying colors are proposals, not established character designs. Generated by scripts/gen-lore-portraits.py.</desc>
<defs>
  <filter id="encyclopedia-green" filterUnits="userSpaceOnUse" x="0" y="0" width="600" height="720" color-interpolation-filters="sRGB">
    <feColorMatrix type="saturate" values="0"/>
    <feComponentTransfer><feFuncR type="gamma" amplitude="0.86" exponent="1.25" offset="0"/><feFuncG type="linear" slope="0.96" intercept="0"/><feFuncB type="gamma" amplitude="0.81" exponent="1.1" offset="0"/></feComponentTransfer>
  </filter>
  <radialGradient id="backdrop" cx="40%" cy="35%" r="70%"><stop stop-color="#6d7b70"/><stop offset="0.65" stop-color="#283e36"/><stop offset="1" stop-color="#101d1c"/></radialGradient>
  <linearGradient id="skin" x2="0.9" y2="0.2"><stop stop-color="#d5b28c"/><stop offset="0.42" stop-color="#ab8267"/><stop offset="1" stop-color="#644c3e"/></linearGradient>
  <linearGradient id="cloth" x2="1" y2="0.5"><stop stop-color="#a4aea0"/><stop offset="0.18" stop-color="#596961"/><stop offset="1" stop-color="#263c39"/></linearGradient>
  <linearGradient id="fade" x2="0" y2="1"><stop stop-color="#101d1c" stop-opacity="0"/><stop offset="1" stop-color="#101d1c"/></linearGradient>
</defs>
<g id="artwork" filter="url(#encyclopedia-green)">
  <rect width="600" height="720" fill="url(#backdrop)"/>
  <path d="M40 112H170M40 112V594H110M560 112H430M560 112V594H490" fill="none" stroke="#a9b7a3" stroke-opacity="0.25"/>
  <text x="40" y="62" fill="#b7c5b3" font-family="DejaVu Sans Mono, monospace" font-size="17" letter-spacing="2">PORTRAIT STUDY</text>
  <g fill="#35322d"><path d="M217 247Q201 232 205 209Q187 187 205 167Q199 141 227 133Q236 108 265 119Q286 98 310 116Q339 101 359 133Q388 135 389 159Q410 178 391 202Q400 225 375 250Z"/></g>
  <path d="M259 328L255 400L211 423L298 487L389 422L346 400L341 326Z" fill="url(#skin)"/>
  <path d="M258 353Q298 387 341 349L345 384Q298 418 257 382Z" fill="#644c3e" opacity="0.45"/>
  <path d="M255 403L299 444L346 403L416 429Q480 449 502 517L523 611H76L100 520Q120 453 181 431Z" fill="url(#cloth)" stroke="#233732" stroke-width="4"/>
  <path d="M248 408L299 437L350 408L328 587H273Z" fill="#303d37"/>
  <path d="M169 455L146 581M430 455L453 581" fill="none" stroke="#acb9a5" stroke-width="2" opacity="0.45"/>
  <path d="M249 403L291 445L276 465L222 420M351 403L308 445L326 465L380 421" fill="#a5ad98" stroke="#455b50" stroke-width="3"/><path d="M302 461V590M338 491H415V543H338" fill="none" stroke="#9da995" stroke-width="3"/><path d="M352 510H384M352 523H397" stroke="#b8c2ac" stroke-width="3"/>
  <g fill="url(#skin)" stroke="#644c3e" stroke-width="2"><ellipse cx="221" cy="253" rx="14" ry="25"/><ellipse cx="368" cy="253" rx="14" ry="25"/></g>
  <path d="M225 188Q239 145 300 149Q352 152 370 194L361 291Q347 338 304 372Q268 358 244 330L228 280Z" fill="url(#skin)" stroke="#644c3e" stroke-width="2"/>
  <path d="M236 259Q244 297 268 307L253 326Q229 290 236 259" fill="#d5b28c" opacity="0.18"/>
  <g fill="#35322d"><path d="M216 224L218 173L244 151L270 136L312 126L351 148L381 174L380 221L361 237L357 194Q337 207 326 182Q299 205 286 181Q267 201 253 177L236 198L232 234Z"/><path d="M235 149Q220 170 240 176M270 135Q247 156 269 170M310 133Q286 159 311 176M344 149Q326 168 349 187" fill="none" stroke="#776957" stroke-width="4"/></g>
  <path d="M242 224L276 226M316 226L349 222" stroke="#48382c" stroke-width="5"/>
<path d="M243 243Q260 235 278 244Q260 251 243 243M316 243Q332 234 350 242Q333 252 316 243" fill="#c5b59a"/>
<g fill="#323b32"><circle cx="261" cy="244" r="5"/><circle cx="333" cy="243" r="5"/></g>
<g fill="none" stroke="#444e49" stroke-width="4"><rect x="233" y="228" width="53" height="35" rx="11"/><rect x="307" y="228" width="53" height="35" rx="11"/><path d="M286 239Q296 232 307 239M222 234L233 238M360 238L370 232"/></g>
<path d="M299 250L288 286L306 290M273 320Q297 325 323 315M286 336L308 335" fill="none" stroke="#70503d" stroke-width="3" stroke-linecap="round"/>
  <rect y="552" width="600" height="168" fill="url(#fade)"/>
  <path d="M40 620H128" stroke="#aabfaa" stroke-width="3"/>
  <g font-family="DejaVu Sans, sans-serif"><text x="40" y="662" fill="#e1e4cf" font-size="32" letter-spacing="2">SAMIR BELL</text><text x="40" y="694" fill="#9fb8ac" font-size="18" letter-spacing="2">SYSTEMS / FIRST AID</text></g>
  <rect x="16" y="16" width="568" height="688" fill="none" stroke="#8f9e8c" stroke-opacity="0.25"/>
</g>
</svg>
