<svg xmlns="http://www.w3.org/2000/svg" width="560" height="364" viewBox="0 0 560 364" overflow="visible" role="img" aria-label="Samir checks residential supplies at the processing console while Leila examines the isolated line." data-panel="2b"><defs><clipPath id="page-2-2b-panel-clip"><rect x="0" y="0" width="560" height="364" fill="white" stroke="none" stroke-width="2" rx="0"/></clipPath></defs><g clip-path="url(#page-2-2b-panel-clip)"><svg xmlns="http://www.w3.org/2000/svg" width="560" height="364" viewBox="0 0 560 364"><defs><linearGradient id="page-2-2b-space" x2=".8" y2="1"><stop stop-color="#344760" offset="0"/><stop stop-color="#202c42" offset="0.6"/><stop stop-color="#34434d" offset="1"/></linearGradient><linearGradient id="page-2-2b-planet" x2=".9" y2=".6"><stop stop-color="#f4d9a0" offset="0"/><stop stop-color="#d3ae83" offset="0.58"/><stop stop-color="#73677d" offset="1"/></linearGradient><clipPath id="page-2-2b-globe"><circle r="310"/></clipPath></defs><rect x="0" y="0" width="560" height="364" fill="#59727a" stroke="none" stroke-width="2" rx="0"/><path d="M0 0H201.6L100.8 364H0Z" fill="#304c58" stroke="none" stroke-width="3" stroke-linecap="round" stroke-linejoin="round"/><path d="M48 0V364" fill="none" stroke="#304c58" stroke-width="25" stroke-linecap="round" stroke-linejoin="round"/><path d="M42 0V364" fill="none" stroke="#91aba8" stroke-width="6" stroke-linecap="round" stroke-linejoin="round"/><path d="M212.8 0V364" fill="none" stroke="#304c58" stroke-width="25" stroke-linecap="round" stroke-linejoin="round"/><path d="M206.8 0V364" fill="none" stroke="#91aba8" stroke-width="6" stroke-linecap="round" stroke-linejoin="round"/><path d="M492.8 0V364" fill="none" stroke="#304c58" stroke-width="25" stroke-linecap="round" stroke-linejoin="round"/><path d="M486.8 0V364" fill="none" stroke="#91aba8" stroke-width="6" stroke-linecap="round" stroke-linejoin="round"/><path d="M0 236.6H560" fill="none" stroke="#304c58" stroke-width="12" stroke-linecap="round" stroke-linejoin="round"/><g transform="translate(295 20) scale(.65)"><g transform="" data-character="samir" data-pose="work-bust"><path d="M125 209L211 210L211 276L240 297L170 348L97 297L126 267Z" fill="#ab8267" stroke="#23333c" stroke-width="2.2" stroke-linecap="round" stroke-linejoin="round"/><path d="M126 226Q170 251 211 224L211 266L168 291L126 269Z" fill="#644c3e" stroke="none" stroke-width="3" stroke-linecap="round" stroke-linejoin="round" opacity="0.75"/><path d="M114 277L70 299Q14 314-14 374L-56 567H339L314 387Q303 331 248 305L210 276L169 310Z" fill="#596961" stroke="#23333c" stroke-width="2.8" stroke-linecap="round" stroke-linejoin="round"/><path d="M210 277L248 305Q303 331 314 387L339 567H219L209 347Z" fill="#455b50" stroke="none" stroke-width="3" stroke-linecap="round" stroke-linejoin="round"/><path d="M114 278L169 310L211 277L225 303L190 347L143 339L96 304Z" fill="#a5ad98" stroke="#23333c" stroke-width="2.2" stroke-linecap="round" stroke-linejoin="round"/><path d="M114 278L135 327L117 347L85 313M211 277L194 327L218 347L244 309" fill="#596961" stroke="#23333c" stroke-width="2.2" stroke-linecap="round" stroke-linejoin="round"/><path d="M132 349L134 561M75 315Q33 331 18 359M245 315Q276 330 287 354M12 390L-8 490M273 402L291 501" fill="none" stroke="#9da995" stroke-width="2" stroke-linecap="round" stroke-linejoin="round"/><path d="M184 395H252V452H184Z" fill="#455b50" stroke="#23333c" stroke-width="1.8" stroke-linecap="round" stroke-linejoin="round"/><path d="M190 403H246" fill="none" stroke="#9da995" stroke-width="1.4" stroke-linecap="round" stroke-linejoin="round"/><g transform="translate(-130 -121)"><g transform="" data-face="samir" data-gaze="forward"><g transform="" fill="#35322d"><path d="M217 247Q201 232 205 209Q187 187 205 167Q199 141 227 133Q236 108 265 119Q286 98 310 116Q339 101 359 133Q388 135 389 159Q410 178 391 202Q400 225 375 250Z"/></g><ellipse cx="221" cy="253" rx="14" ry="25" fill="#ab8267" stroke="#70503d" stroke-width="1.6"/><path d="M218 246Q229 240 226 256L221 263" fill="none" stroke="#70503d" stroke-width="1.4" stroke-linecap="round" stroke-linejoin="round"/><ellipse cx="368" cy="253" rx="14" ry="25" fill="#ab8267" stroke="#70503d" stroke-width="1.6"/><path d="M365 246Q376 240 373 256L368 263" fill="none" stroke="#70503d" stroke-width="1.4" stroke-linecap="round" stroke-linejoin="round"/><path d="M225 188Q239 145 300 149Q352 152 370 194L361 291Q347 338 304 372Q268 358 244 330L228 280Z" fill="#ab8267" stroke="#70503d" stroke-width="2" stroke-linecap="round" stroke-linejoin="round" data-protect-face="samir"/><path d="M343 197L361 218L357 282L345 322L317 346L303 354L320 331L339 288Z" fill="#644c3e" stroke="none" stroke-width="3" stroke-linecap="round" stroke-linejoin="round" opacity="0.42"/><path d="M237 212L252 215L249 249L256 285L246 292L233 263Z" fill="#d5b28c" stroke="none" stroke-width="3" stroke-linecap="round" stroke-linejoin="round" opacity="0.45"/><path d="M264 283L277 283M324 282L338 278M279 344L300 349" fill="none" stroke="#d5b28c" stroke-width="1.3" stroke-linecap="round" stroke-linejoin="round"/><g transform="" fill="#35322d"><path d="M216 224L218 173L244 151L270 136L312 126L351 148L381 174L380 221L361 237L357 194Q337 207 326 182Q299 205 286 181Q267 201 253 177L236 198L232 234Z"/><path d="M235 149Q220 170 240 176M270 135Q247 156 269 170M310 133Q286 159 311 176M344 149Q326 168 349 187" fill="none" stroke="#776957" stroke-width="4"/></g><path d="M242 224L276 226M316 226L349 222" stroke="#48382c" stroke-width="5"/>
<path d="M243 243Q260 235 278 244Q260 251 243 243M316 243Q332 234 350 242Q333 252 316 243" fill="#c5b59a"/>
<g fill="#323b32"><circle cx="261" cy="244" r="5"/><circle cx="333" cy="243" r="5"/></g>
<g fill="none" stroke="#444e49" stroke-width="4"><rect x="233" y="228" width="53" height="35" rx="11"/><rect x="307" y="228" width="53" height="35" rx="11"/><path d="M286 239Q296 232 307 239M222 234L233 238M360 238L370 232"/></g>
<path d="M299 250L288 286L306 290M273 320Q297 325 323 315M286 336L308 335" fill="none" stroke="#70503d" stroke-width="3" stroke-linecap="round"/></g></g></g></g><path d="M20 253L531 253L557 310V364H8V306Z" fill="#193442" stroke="#23333c" stroke-width="3" stroke-linecap="round" stroke-linejoin="round"/><rect x="29" y="269" width="252" height="82" fill="#315e50" stroke="#508c79" stroke-width="2" rx="5"/><g transform="" data-story-slot="label-1"><text x="43" y="294" font-family="DejaVu Sans, sans-serif" font-size="15" fill="#b2dfb9" font-weight="normal" letter-spacing="0.5" text-anchor="start">RESIDENTIAL SUPPLIES</text></g><g transform="" data-story-slot="label-2"><text x="43" y="331" font-family="DejaVu Sans, sans-serif" font-size="26" fill="#b2dfb9" font-weight="bold" letter-spacing="0" text-anchor="start">NORMAL</text></g><path d="M332 300H512M332 321H512M346 285V340M385 285V340M424 285V340M463 285V340M502 285V340" fill="none" stroke="#91aba8" stroke-width="2" stroke-linecap="round" stroke-linejoin="round"/><g transform="translate(295 20) scale(.65)"><g transform="" data-pose="inspection-forearms" data-character="samir"><path d="M48 340Q18 369 36 413L100 477L128 451L81 399L87 372Z" fill="#596961" stroke="#23333c" stroke-width="2.5" stroke-linecap="round" stroke-linejoin="round"/><path d="M39 390L63 419L109 463M57 352L72 382" fill="none" stroke="#9da995" stroke-width="2" stroke-linecap="round" stroke-linejoin="round"/><path d="M100 446L128 448L139 461L112 485L94 470Z" fill="#455b50" stroke="#23333c" stroke-width="2" stroke-linecap="round" stroke-linejoin="round"/><path d="M127 450L149 434Q159 429 168 435L187 444Q194 447 190 453L171 448L197 458Q204 462 200 468L171 459L190 473Q195 479 190 482L158 465L137 470L122 465Z" fill="#ab8267" stroke="#23333c" stroke-width="1.8" stroke-linecap="round" stroke-linejoin="round"/><path d="M145 445L158 451M151 455L166 457" fill="none" stroke="#70503d" stroke-width="1.3" stroke-linecap="round" stroke-linejoin="round"/><path d="M270 340Q332 380 322 420L292 460L269 435L282 403L240 374Z" fill="#596961" stroke="#23333c" stroke-width="2.5" stroke-linecap="round" stroke-linejoin="round"/><path d="M308 379L308 415L289 445" fill="none" stroke="#9da995" stroke-width="2" stroke-linecap="round" stroke-linejoin="round"/><path d="M280 423L305 448L292 466L264 443Z" fill="#455b50" stroke="#23333c" stroke-width="2" stroke-linecap="round" stroke-linejoin="round"/><g transform="translate(70 -15)"><path d="M203 448L182 429Q175 424 170 430L176 443L154 440Q145 439 145 446L173 452L150 452Q142 453 145 460L175 462L153 465Q147 469 154 474L184 471L206 461Z" fill="#ab8267" stroke="#23333c" stroke-width="1.8" stroke-linecap="round" stroke-linejoin="round"/><path d="M178 443L187 452M175 462L188 459" fill="none" stroke="#70503d" stroke-width="1.3" stroke-linecap="round" stroke-linejoin="round"/></g></g></g></svg></g><rect x="0" y="0" width="560" height="364" fill="none" stroke="#23333c" stroke-width="2.5" rx="0"/><g class="comic-lettering"><g data-balloon="0"><path d="M40 18H299Q323 18 323 42V90Q323 114 299 114H311L347.18724950087403 149.89905279432907L288 114H40Q16 114 16 90V42Q16 18 40 18Z" fill="#fff4dd" stroke="#23333c" stroke-width="2.5" stroke-linecap="round" stroke-linejoin="round"/><text x="34" y="43" font-family="DejaVu Sans, sans-serif" font-size="13" font-weight="bold" letter-spacing="1.3" fill="#376657">SAMIR</text><text x="34" y="70" font-family="DejaVu Sans, sans-serif" font-size="22" fill="#23333c">Residential supply</text><text x="34" y="97" font-family="DejaVu Sans, sans-serif" font-size="22" fill="#23333c">is normal.</text></g></g></svg>